<?xml version="1.0" standalone="no"?>
<!DOCTYPE svg PUBLIC "-//W3C//DTD SVG 20010904//EN"
 "http://www.w3.org/TR/2001/REC-SVG-20010904/DTD/svg10.dtd">
<svg version="1.0" xmlns="http://www.w3.org/2000/svg"
 width="500.000000pt" height="500.000000pt" viewBox="0 0 500.000000 500.000000"
 preserveAspectRatio="xMidYMid meet">
<metadata>
Created by potrace 1.14, written by Peter Selinger 2001-2017
</metadata>
<g transform="translate(0.000000,500.000000) scale(0.100000,-0.100000)"
fill="#000000" stroke="none">
<path d="M300 3134 c0 -2 -18 -88 -41 -191 -45 -206 -49 -295 -15 -363 10 -19
70 -87 133 -151 l115 -116 -121 -195 c-125 -202 -135 -226 -109 -283 24 -53
37 -55 423 -55 227 0 372 4 400 11 73 19 116 66 244 272 383 618 421 682 421
708 0 45 -17 78 -52 99 -31 19 -51 20 -303 20 l-269 0 -47 46 c-25 25 -52 46
-60 47 -8 2 -20 7 -28 11 -10 7 -12 6 -6 -4 6 -10 4 -11 -6 -4 -8 4 -23 10
-33 11 -11 2 -25 8 -31 13 -7 6 -15 6 -22 -1 -8 -8 -13 -8 -17 0 -4 6 -17 11
-30 11 -12 0 -28 6 -35 13 -11 10 -12 9 -6 -2 6 -10 4 -12 -6 -5 -8 4 -23 10
-33 11 -11 2 -25 8 -32 14 -8 7 -14 7 -19 -1 -3 -6 -12 -7 -18 -3 -7 4 -21 9
-32 10 -11 2 -24 8 -29 13 -6 6 -14 6 -22 -1 -8 -7 -14 -7 -19 1 -3 5 -16 10
-29 10 -12 0 -28 6 -35 13 -11 10 -12 9 -6 -2 6 -10 4 -12 -6 -5 -8 4 -23 10
-33 11 -11 2 -25 8 -32 14 -8 7 -14 7 -19 -1 -3 -6 -12 -7 -18 -3 -7 4 -21 9
-31 10 -11 2 -26 9 -35 16 -12 10 -13 9 -6 -2 6 -11 5 -12 -6 -5 -15 9 -39 15
-39 8z m1232 -381 c22 -20 23 -70 1 -95 -23 -25 -68 -23 -87 4 -46 66 28 144
86 91z"/>
<path d="M3131 2481 c-21 -11 -30 -21 -22 -25 14 -9 15 -364 1 -386 -14 -22
12 -29 105 -28 65 1 72 2 35 7 -25 4 -51 10 -57 14 -9 6 -13 43 -13 127 0 128
1 130 60 130 99 0 153 -194 71 -257 -24 -19 -3 -15 31 5 16 9 38 34 49 54 62
121 -42 246 -174 210 l-37 -10 0 89 c0 49 -3 89 -7 89 -5 -1 -23 -9 -42 -19z"/>
<path d="M4170 2480 c-19 -11 -29 -19 -22 -20 9 0 12 -49 12 -210 l0 -210 48
0 c37 1 43 3 30 11 -16 9 -18 31 -18 229 0 121 -3 220 -7 220 -5 -1 -24 -9
-43 -20z"/>
<path d="M2530 2456 c-27 -33 18 -72 48 -42 13 13 14 20 6 34 -15 23 -38 26
-54 8z"/>
<path d="M2992 2458 c-16 -16 -15 -33 3 -48 21 -18 55 -3 55 25 0 32 -35 46
-58 23z"/>
<path d="M2088 2453 c9 -3 12 -52 12 -193 0 -184 -1 -189 -22 -204 -21 -15
-14 -16 97 -15 98 1 110 3 64 9 -31 4 -61 10 -68 14 -7 5 -11 65 -11 197 l0
189 55 0 c31 0 71 -6 89 -14 126 -53 143 -319 23 -371 -17 -8 -26 -14 -19 -15
21 0 85 36 109 62 69 73 73 217 10 287 -45 48 -91 61 -227 60 -69 0 -119 -3
-112 -6z"/>
<path d="M2530 2330 c-19 -4 -27 -8 -17 -9 15 -1 17 -15 17 -141 l0 -140 36 0
c29 0 35 3 30 16 -3 9 -6 76 -6 150 0 101 -3 134 -12 133 -7 -1 -29 -5 -48 -9z"/>
<path d="M2760 2329 c-49 -15 -85 -44 -104 -83 -34 -71 -10 -158 53 -191 34
-17 113 -20 142 -5 17 10 19 7 19 -29 0 -76 -70 -112 -123 -63 -24 22 -61 29
-71 13 -3 -4 6 -19 20 -32 45 -43 138 -25 207 39 l27 26 0 157 c0 134 -2 158
-16 163 -32 12 -120 15 -154 5z m75 -13 l35 -15 0 -115 c0 -105 -2 -116 -20
-126 -25 -14 -69 -3 -99 24 -56 50 -69 153 -26 205 14 16 36 32 48 34 12 2 23
5 25 6 1 0 18 -6 37 -13z"/>
<path d="M2995 2330 c-22 -4 -32 -8 -22 -9 15 -1 17 -15 17 -141 l0 -140 42 0
c33 0 39 3 30 12 -8 8 -12 56 -12 150 0 76 -3 137 -7 137 -5 -1 -26 -5 -48 -9z"/>
<path d="M3604 2333 c4 -4 21 -12 39 -18 l32 -10 3 -117 c2 -111 2 -118 -19
-129 -33 -17 -93 4 -120 43 -28 38 -37 125 -19 169 8 18 26 37 44 45 23 10 26
13 11 14 -30 0 -83 -36 -105 -72 -13 -22 -20 -51 -20 -86 0 -46 4 -57 34 -90
l34 -37 114 -1 113 -1 -5 136 -5 136 -35 12 c-38 13 -108 17 -96 6z"/>
<path d="M3820 2331 c-28 -5 -31 -8 -16 -14 17 -7 18 -18 14 -142 l-4 -135 39
0 c34 0 37 2 27 19 -5 11 -10 62 -10 114 0 91 1 95 26 112 44 29 96 31 119 5
18 -19 20 -36 20 -136 l0 -114 38 0 c34 0 37 2 27 19 -5 11 -10 65 -10 121 0
99 -1 102 -29 131 -37 36 -63 37 -135 1 l-56 -29 0 29 c0 15 -3 27 -7 27 -5
-1 -24 -4 -43 -8z"/>
<path d="M4350 2318 c0 -7 -28 -41 -62 -75 -34 -35 -58 -63 -52 -63 6 0 38
-31 70 -70 53 -64 61 -70 96 -70 l37 0 -42 43 c-23 23 -60 64 -81 90 l-39 48
24 25 c13 14 44 38 68 55 l44 29 -31 0 c-19 0 -32 -5 -32 -12z"/>
</g>
</svg>
