<svg width="615" height="468" viewBox="0 0 615 468" fill="none" xmlns="http://www.w3.org/2000/svg">
<g clip-path="url(#clip0_953_52)">
<path d="M258.952 0L258.668 1.27702L491.882 1.56082C559.016 1.56082 613.438 55.9556 613.438 123.055V266.121H615V17.7076C615 7.92795 607.068 0 597.284 0H258.952Z" fill="#E6E6E6"/>
<path d="M515.813 60.9187C519.46 60.9187 522.416 57.8981 522.416 54.172C522.416 50.4459 519.46 47.4253 515.813 47.4253C512.166 47.4253 509.21 50.4459 509.21 54.172C509.21 57.8981 512.166 60.9187 515.813 60.9187Z" fill="#C20014"/>
<path d="M493.003 60.9187C496.649 60.9187 499.606 57.8981 499.606 54.172C499.606 50.4459 496.649 47.4253 493.003 47.4253C489.356 47.4253 486.4 50.4459 486.4 54.172C486.4 57.8981 489.356 60.9187 493.003 60.9187Z" fill="#C20014"/>
<path d="M470.193 60.9187C473.839 60.9187 476.796 57.8981 476.796 54.172C476.796 50.4459 473.839 47.4253 470.193 47.4253C466.546 47.4253 463.59 50.4459 463.59 54.172C463.59 57.8981 466.546 60.9187 470.193 60.9187Z" fill="#C20014"/>
<path d="M416.16 156.213H323.811C320.643 156.213 318.065 153.637 318.065 150.47C318.065 147.304 320.643 144.728 323.811 144.728H416.16C419.328 144.728 421.906 147.304 421.906 150.47C421.906 153.637 419.328 156.213 416.16 156.213Z" fill="#E6E6E6"/>
<path d="M488.229 175.651H323.811C320.643 175.651 318.065 173.074 318.065 169.908C318.065 166.741 320.643 164.165 323.811 164.165H488.229C491.397 164.165 493.975 166.741 493.975 169.908C493.975 173.074 491.397 175.651 488.229 175.651Z" fill="#E6E6E6"/>
<path d="M519.342 205.843H292.698C287.805 205.843 283.824 201.864 283.824 196.974V123.405C283.824 118.514 287.805 114.535 292.698 114.535H519.342C524.235 114.535 528.217 118.514 528.217 123.405V196.974C528.217 201.864 524.235 205.843 519.342 205.843ZM292.698 116.096C288.666 116.096 285.386 119.375 285.386 123.405V196.974C285.386 201.004 288.666 204.283 292.698 204.283H519.342C523.375 204.283 526.655 201.004 526.655 196.974V123.405C526.655 119.375 523.375 116.096 519.342 116.096H292.698Z" fill="#D9D9D9"/>
<path d="M523.646 225.539C534.426 225.539 543.166 216.804 543.166 206.029C543.166 195.254 534.426 186.519 523.646 186.519C512.865 186.519 504.125 195.254 504.125 206.029C504.125 216.804 512.865 225.539 523.646 225.539Z" fill="#C20014"/>
<path d="M528.428 199.771C526.866 197.889 524.26 196.778 521.838 197.485C519.619 198.133 517.773 200.233 517.98 202.629C518.076 203.741 518.529 204.809 519.309 205.616C520.189 206.528 521.311 206.842 522.542 206.946C523.855 207.057 524.982 207.252 525.856 208.334C526.617 209.274 526.854 210.522 526.419 211.659C525.383 214.362 521.721 214.677 520.189 212.246C519.588 211.293 518.067 212.173 518.672 213.133C519.921 215.114 522.459 216.206 524.741 215.465C526.96 214.744 528.589 212.444 528.383 210.092C528.169 207.65 526.223 205.637 523.806 205.306C522.532 205.132 521.2 205.271 520.339 204.132C519.665 203.242 519.521 202.011 520.03 201.013C520.651 199.796 522.002 199.031 523.354 199.028C524.889 199.025 526.231 199.861 527.186 201.013C527.908 201.884 529.145 200.635 528.428 199.771Z" fill="white"/>
<path d="M521.592 193.957L520.748 218.515C520.722 219.269 521.894 219.268 521.919 218.515L522.764 193.957C522.79 193.203 521.618 193.204 521.592 193.957Z" fill="white"/>
<path d="M524.324 193.957L523.48 218.515C523.454 219.269 524.625 219.268 524.651 218.515L525.495 193.957C525.521 193.203 524.35 193.204 524.324 193.957Z" fill="white"/>
<path d="M73.9437 457.86L82.2373 457.859L86.1826 425.886L73.942 425.887L73.9437 457.86Z" fill="#A0616A"/>
<path d="M73.6518 466.508L99.1557 466.507V466.185C99.1553 460.705 94.7111 456.263 89.2289 456.263L84.5696 452.73L75.8777 456.264L73.6514 456.264L73.6518 466.508Z" fill="#2F2E41"/>
<path d="M124.628 457.86L132.921 457.859L136.867 425.886L124.626 425.887L124.628 457.86Z" fill="#A0616A"/>
<path d="M124.336 466.508L149.84 466.507V466.185C149.839 460.705 145.395 456.263 139.913 456.263L135.254 452.73L126.562 456.264L124.335 456.264L124.336 466.508Z" fill="#2F2E41"/>
<path d="M66.6171 254.453L142.462 252.346L141.976 295.113L137.975 345.105C137.975 345.105 147.311 381.766 139.309 418.427L138.642 446.422L117.301 445.089C117.301 445.089 113.633 390.098 118.302 369.435L104.297 294.78L90.9588 367.435C90.9588 367.435 92.9595 409.428 87.6243 426.092V441.798H72.5352C72.5352 441.798 56.2803 386.765 68.2844 358.77L66.6171 254.453Z" fill="#2F2E41"/>
<path d="M121.169 130.175C121.169 130.175 119.122 125.042 117.594 122.751C106.897 122.751 105.538 123.485 96.2005 122.751L70.2808 261.84C70.2808 261.84 56.0308 273.843 71.6786 273.843C87.3263 273.843 109.888 269.479 116.074 272.752C122.261 276.025 141.911 270.933 141.911 270.933L121.169 130.175Z" fill="#C20014"/>
<path d="M96.6275 122.475L87.0318 132.679L80.6946 132.763C74.8334 132.84 70.1356 137.635 70.1812 143.494L72.1683 201.943C72.1683 201.943 54.2107 257.548 66.2195 259.73L64.0361 268.096L87.0721 282.281C87.0721 282.281 94.0585 244.928 95.1502 236.562C96.2419 228.197 101.667 181.052 101.667 181.052C101.667 181.052 100.609 142.271 99.8809 138.678L96.6275 122.475Z" fill="#2F2E41"/>
<path d="M117.894 122.9L113.163 147.269L125.172 211.647C125.172 211.647 122.261 271.297 131.358 277.117L145.696 273.407L144.604 261.768C144.604 261.768 145.914 258.931 145.187 248.019C144.459 237.108 140.17 217.217 140.17 217.217L146.522 144.723C146.522 144.723 130.631 129.811 123.716 131.63L117.894 122.9Z" fill="#2F2E41"/>
<path d="M39.4771 259.915L40.9568 240.072L52.4156 239.335L50.1044 260.259C50.4749 260.784 50.7762 261.372 50.9877 262.014C52.1382 265.508 50.237 269.272 46.7414 270.422C43.2457 271.572 39.4792 269.672 38.3288 266.178C37.5951 263.95 38.1065 261.615 39.4771 259.915Z" fill="#A0616A"/>
<path d="M83.6015 133.001L77.5649 133.101C73.1028 133.175 69.1596 136.02 67.685 140.23L45.0637 204.816L42.7156 216.859C42.7156 216.859 31.8639 242.866 35.9326 246.8L37.8723 254.043L52.2616 253.805L52.1633 247.871C52.1633 247.871 56.5571 247.458 56.5363 242.23C56.5363 242.23 67.9237 222.626 64.9105 216.492L72.6682 201.449L83.6015 133.001Z" fill="#2F2E41"/>
<path d="M224.937 234.715L210.333 221.192L201.44 228.452L217.389 242.201C217.475 242.838 217.655 243.473 217.938 244.087C219.476 247.429 223.433 248.891 226.776 247.354C230.12 245.817 231.583 241.862 230.045 238.52C229.064 236.389 227.098 235.027 224.937 234.715Z" fill="#A0616A"/>
<path d="M137.297 137.521L129.972 165.801L155.623 201.035L163.975 210.028C163.975 210.028 199.944 238.115 205.522 237.147L212.52 239.849L220.806 228.088L215.951 224.671C215.951 224.671 218.207 220.88 213.968 217.816C213.968 217.816 183.49 193.069 176.756 191.888L169.167 176.759L145.978 144.471L137.297 137.521Z" fill="#2F2E41"/>
<path d="M119.844 116.642C119.744 116.722 119.651 116.782 119.55 116.842C118.776 117.356 117.967 117.817 117.119 118.211C117.106 118.224 117.086 118.231 117.066 118.238C115.537 118.958 113.887 119.499 112.144 119.82C110.361 120.147 108.591 120.233 106.868 120.093C97.9919 119.392 90.3517 112.831 88.6554 103.666C88.0877 100.608 88.2479 97.5912 89.0026 94.781C90.9594 87.5184 96.9234 81.6575 104.817 80.1957C115.764 78.1731 126.276 85.4023 128.299 96.343C129.795 104.433 126.229 112.29 119.844 116.642Z" fill="#A0616A"/>
<path d="M96.2013 116.15L97.4173 110.538C97.4173 110.538 94.1073 107.658 97.4173 104.981L99.2185 103.811H101.969L103.745 94.7636L115.06 94.0096C115.06 94.0096 126.375 91.7477 127.884 87.9778C127.884 87.9778 124.112 87.2238 124.867 84.2079C124.867 84.2079 115.814 72.8983 107.516 75.9142C99.2185 78.9301 96.2011 81.946 96.2011 81.946C96.2011 81.946 82.6227 79.6841 82.6227 96.2715C82.6227 112.859 96.2013 116.15 96.2013 116.15Z" fill="#2F2E41"/>
<path d="M220.227 260.959H197.43C194.959 260.959 192.948 258.949 192.948 256.479V212.941C192.948 210.471 194.959 208.461 197.43 208.461H220.227C222.699 208.461 224.709 210.471 224.709 212.941V256.479C224.709 258.949 222.699 260.959 220.227 260.959Z" fill="#D9D9D9"/>
<path d="M224.709 224.476C224.605 224.476 224.52 224.561 224.52 224.665V230.73C224.52 230.834 224.605 230.919 224.709 230.919C224.814 230.919 224.899 230.834 224.899 230.73V224.665C224.899 224.561 224.814 224.476 224.709 224.476Z" fill="#D9D9D9"/>
<path d="M224.283 212.941V256.478C224 258 224.617 257.864 222.5 258C222.469 258.002 221.033 257.999 221 258C220.944 258.003 220.557 258 220.5 258C220.5 258 220.382 258.028 220 258C219.5 258 219.5 258 219 258C218.791 257.984 217.234 258.019 217 258C216.536 257.962 216.547 258.047 216 258C215.782 257.982 215.231 258.02 215 258C214 258 213.5 258 212 258C211.765 257.978 211.739 258.024 211.5 258C211.438 257.993 211.064 258.007 211 258C209.892 258 211 258 210 258C207.5 258 207.747 258 207.5 258C205.5 258 205 258 203 258C201.5 258 200.083 258.13 199 257.939C198.648 257.877 197.681 258.04 197.357 257.977C197.293 257.965 197.23 257.952 197.167 257.939C194.876 257.48 193.375 256.986 193.375 256.478V212.941C193.375 210.701 195.19 208.887 197.431 208.887H199.852C200.239 208.887 200.55 209.188 200.583 209.574C200.586 209.599 200.589 209.625 200.594 209.651C200.664 210.038 201.019 210.308 201.414 210.308H216.244C216.638 210.308 216.994 210.038 217.064 209.651C217.069 209.625 217.072 209.599 217.074 209.574C217.108 209.188 217.419 208.887 217.805 208.887H220.227C222.467 208.887 224.283 210.701 224.283 212.941Z" fill="#C20014"/>
<path d="M192.853 219.927C192.749 219.927 192.664 220.012 192.664 220.117V221.633C192.664 221.737 192.749 221.822 192.853 221.822C192.958 221.822 193.043 221.737 193.043 221.633V220.117C193.043 220.012 192.958 219.927 192.853 219.927Z" fill="#D9D9D9"/>
<path d="M192.853 224.476C192.749 224.476 192.664 224.561 192.664 224.665V227.603C192.664 227.707 192.749 227.792 192.853 227.792C192.958 227.792 193.043 227.707 193.043 227.603V224.665C193.043 224.561 192.958 224.476 192.853 224.476Z" fill="#D9D9D9"/>
<path d="M192.853 228.645C192.749 228.645 192.664 228.73 192.664 228.835V231.772C192.664 231.877 192.749 231.962 192.853 231.962C192.958 231.962 193.043 231.877 193.043 231.772V228.835C193.043 228.73 192.958 228.645 192.853 228.645Z" fill="#D9D9D9"/>
<path d="M199.585 209.551H196.361C196.231 209.551 196.124 209.657 196.124 209.788C196.124 209.919 196.231 210.025 196.361 210.025H199.585C199.716 210.025 199.822 209.919 199.822 209.788C199.822 209.657 199.716 209.551 199.585 209.551Z" fill="#D9D9D9"/>
<path d="M218.405 210.025C218.614 210.025 218.784 209.855 218.784 209.646C218.784 209.436 218.614 209.267 218.405 209.267C218.195 209.267 218.025 209.436 218.025 209.646C218.025 209.855 218.195 210.025 218.405 210.025Z" fill="#D9D9D9"/>
<path d="M219.447 210.025C219.657 210.025 219.827 209.855 219.827 209.646C219.827 209.436 219.657 209.267 219.447 209.267C219.238 209.267 219.068 209.436 219.068 209.646C219.068 209.855 219.238 210.025 219.447 210.025Z" fill="#D9D9D9"/>
<path d="M220.49 210.025C220.7 210.025 220.87 209.855 220.87 209.646C220.87 209.436 220.7 209.267 220.49 209.267C220.281 209.267 220.111 209.436 220.111 209.646C220.111 209.855 220.281 210.025 220.49 210.025Z" fill="#D9D9D9"/>
<path d="M209.333 247.122C215.962 247.122 221.337 241.75 221.337 235.124C221.337 228.497 215.962 223.125 209.333 223.125C202.703 223.125 197.329 228.497 197.329 235.124C197.329 241.75 202.703 247.122 209.333 247.122Z" fill="white"/>
<path d="M212.274 231.276C211.313 230.118 209.71 229.435 208.221 229.87C206.857 230.268 205.721 231.56 205.849 233.033C205.908 233.717 206.186 234.374 206.666 234.87C207.207 235.431 207.897 235.624 208.654 235.688C209.461 235.756 210.154 235.876 210.692 236.541C211.16 237.12 211.306 237.887 211.038 238.586C210.401 240.249 208.149 240.442 207.207 238.947C206.838 238.361 205.902 238.902 206.274 239.492C207.042 240.711 208.603 241.382 210.006 240.926C211.371 240.483 212.373 239.069 212.246 237.623C212.114 236.121 210.918 234.883 209.431 234.679C208.648 234.572 207.829 234.658 207.299 233.957C206.885 233.41 206.796 232.653 207.109 232.04C207.491 231.291 208.322 230.82 209.153 230.819C210.098 230.817 210.922 231.331 211.51 232.039C211.954 232.575 212.714 231.807 212.274 231.276Z" fill="#C20014"/>
<path d="M208.07 227.7L207.551 242.802C207.535 243.266 208.255 243.265 208.271 242.802L208.79 227.7C208.806 227.236 208.086 227.237 208.07 227.7Z" fill="#C20014"/>
<path d="M209.75 227.7L209.231 242.802C209.215 243.266 209.935 243.265 209.951 242.802L210.47 227.7C210.486 227.236 209.766 227.237 209.75 227.7Z" fill="#C20014"/>
<path d="M41.4573 454.763C39.8788 454.862 39.0064 452.902 40.2006 451.76L40.3194 451.287C40.3038 451.25 40.2881 451.212 40.2722 451.174C38.6759 447.37 33.2658 447.396 31.6831 451.206C30.2783 454.588 28.4897 457.975 28.0494 461.551C27.8519 463.129 27.9408 464.737 28.2912 466.286C24.9995 459.099 23.2673 451.252 23.2673 443.36C23.2673 441.377 23.3759 439.394 23.598 437.416C23.7806 435.798 24.0323 434.19 24.358 432.597C26.1197 423.985 29.9345 415.782 35.437 408.931C38.0822 407.486 40.2881 405.227 41.6205 402.519C42.0992 401.542 42.4743 400.491 42.652 399.421C42.3509 399.46 41.5169 394.878 41.7439 394.597C41.3244 393.961 40.5736 393.644 40.1154 393.024C37.8367 389.936 34.6973 390.475 33.0583 394.671C29.5572 396.437 29.5233 399.366 31.6716 402.183C33.0383 403.975 33.2261 406.4 34.4253 408.319C34.3019 408.477 34.1736 408.63 34.0503 408.788C31.7878 411.688 29.831 414.806 28.1815 418.081C28.6477 414.441 27.9594 410.056 26.786 407.229C25.4502 404.008 22.9466 401.296 20.7419 398.512C18.0936 395.167 12.6631 396.627 12.1966 400.866C12.1921 400.907 12.1877 400.948 12.1833 400.989C12.5108 401.174 12.8316 401.37 13.145 401.577C14.9325 402.759 14.3148 405.529 12.1968 405.855L12.1488 405.863C12.2673 407.042 12.4696 408.211 12.7657 409.36C9.93727 420.293 16.0436 424.275 24.7626 424.453C24.9551 424.552 25.1426 424.651 25.3351 424.744C24.4517 427.23 23.746 429.78 23.2229 432.365C22.7541 434.649 22.4284 436.957 22.2458 439.276C22.0188 442.2 22.0385 445.14 22.2853 448.06L22.2705 447.957C21.6438 444.741 19.8967 441.737 17.3601 439.655C13.5814 436.553 8.2427 435.41 4.16608 432.916C2.20371 431.716 -0.310917 433.267 0.0315669 435.541L0.0482387 435.65C0.655234 435.897 1.24741 436.183 1.81988 436.503C2.14736 436.688 2.46817 436.884 2.78156 437.091C4.56908 438.273 3.95131 441.043 1.83331 441.369L1.78531 441.377C1.75077 441.382 1.72115 441.387 1.68666 441.392C2.72794 443.863 4.17879 446.156 5.99486 448.134C7.76339 457.678 15.3593 458.584 23.4845 455.804H23.4894C24.3777 459.671 25.6756 463.45 27.3437 467.05H41.1122C41.1616 466.898 41.206 466.74 41.2504 466.587C39.9772 466.666 38.6941 466.592 37.4406 466.36C38.4622 465.107 39.4837 463.844 40.5052 462.591C40.5299 462.567 40.5497 462.542 40.5694 462.517C41.0876 461.876 41.6107 461.24 42.1288 460.599L42.1291 460.598C42.1616 458.63 41.925 456.667 41.4573 454.763Z" fill="#D9D9D9"/>
<path d="M195.455 467.091C195.455 467.595 195.05 468 194.546 468H1.01629C0.512033 468 0.107056 467.595 0.107056 467.091C0.107056 466.587 0.512033 466.183 1.01629 466.183H194.546C195.05 466.183 195.455 466.587 195.455 467.091Z" fill="#D9D9D9"/>
</g>
<defs>
<clipPath id="clip0_953_52">
<rect width="615" height="468" fill="white"/>
</clipPath>
</defs>
</svg>
