<svg width="300" height="300" viewBox="0 0 300 300" fill="none" xmlns="http://www.w3.org/2000/svg">
<path d="M69.8185 234.62H89.2747V149.283H69.8185V234.62ZM210.726 234.62H230.182V56.1642H210.726V234.62ZM140.34 234.62H159.796V186.9H140.34V234.62ZM140.34 149.283H159.796V120.951H140.34V149.283ZM25.2322 299.645C18.5467 299.645 12.7292 297.17 7.77957 292.221C2.82968 287.271 0.354736 281.453 0.354736 274.768V25.2321C0.354736 18.5466 2.82968 12.729 7.77957 7.77944C12.7292 2.82956 18.5467 0.354614 25.2322 0.354614H274.768C281.453 0.354614 287.271 2.82956 292.221 7.77944C297.171 12.729 299.645 18.5466 299.645 25.2321V274.768C299.645 281.453 297.171 287.271 292.221 292.221C287.271 297.17 281.453 299.645 274.768 299.645H25.2322ZM25.2726 280.189H274.728C276.093 280.189 277.345 279.62 278.483 278.482C279.62 277.344 280.189 276.093 280.189 274.727V25.2725C280.189 23.9072 279.62 22.6556 278.483 21.5175C277.345 20.3797 276.093 19.8108 274.728 19.8108H25.2726C23.9074 19.8108 22.6557 20.3797 21.5176 21.5175C20.3798 22.6556 19.811 23.9072 19.811 25.2725V274.727C19.811 276.093 20.3798 277.344 21.5176 278.482C22.6557 279.62 23.9074 280.189 25.2726 280.189Z" fill="white"/>
</svg>
