<svg width="826" height="467" viewBox="0 0 826 467" fill="none" xmlns="http://www.w3.org/2000/svg">
<g clip-path="url(#clip0_953_206)">
<path d="M155.06 453.964H142.8L140.968 406.676L155.062 406.677L155.06 453.964Z" fill="#FFB8B8"/>
<path d="M158.186 465.849L118.656 465.847V465.347C118.656 463.327 119.054 461.326 119.827 459.459C120.6 457.592 121.733 455.896 123.162 454.467C124.591 453.039 126.287 451.905 128.154 451.132C130.021 450.359 132.022 449.961 134.042 449.961H134.043L158.187 449.962L158.186 465.849Z" fill="#2F2E41"/>
<path d="M224.114 453.964H236.373L238.206 406.676L224.111 406.677L224.114 453.964Z" fill="#FFB8B8"/>
<path d="M220.986 449.962L245.13 449.961H245.131C247.152 449.961 249.152 450.359 251.019 451.132C252.886 451.905 254.582 453.039 256.011 454.467C257.44 455.896 258.573 457.592 259.346 459.459C260.12 461.326 260.518 463.327 260.518 465.347V465.847L220.987 465.849L220.986 449.962Z" fill="#2F2E41"/>
<path d="M224.435 447.904C223.413 447.901 222.421 447.55 221.623 446.911C220.825 446.271 220.267 445.379 220.041 444.381L189.655 311.842C189.588 311.506 189.405 311.203 189.137 310.988C188.869 310.774 188.534 310.66 188.191 310.668H188.183C187.839 310.662 187.503 310.778 187.236 310.995C186.968 311.213 186.787 311.518 186.723 311.857L158.819 443.502C158.601 444.51 158.046 445.412 157.245 446.061C156.445 446.709 155.447 447.065 154.416 447.069H141.123C140.51 447.069 139.903 446.943 139.34 446.7C138.777 446.457 138.27 446.102 137.849 445.655C137.428 445.209 137.103 444.682 136.894 444.105C136.684 443.529 136.595 442.915 136.631 442.303L146.532 275.448L150.516 274.269L150.591 274.27L228.849 274.955L245.517 441.626C245.575 442.221 245.514 442.821 245.338 443.392C245.162 443.962 244.874 444.492 244.49 444.951C244.107 445.409 243.636 445.786 243.106 446.06C242.575 446.335 241.995 446.501 241.4 446.548L224.796 447.889C224.675 447.899 224.555 447.904 224.435 447.904Z" fill="#2F2E41"/>
<path d="M192.118 121.54C205.683 121.54 216.679 110.543 216.679 96.9788C216.679 83.4141 205.683 72.4177 192.118 72.4177C178.553 72.4177 167.557 83.4141 167.557 96.9788C167.557 110.543 178.553 121.54 192.118 121.54Z" fill="#A0616A"/>
<path d="M177.072 293.742C172.763 293.795 168.471 293.191 164.344 291.951C160.674 290.844 157.269 288.997 154.339 286.525C151.409 284.053 149.015 281.007 147.306 277.576C146.765 276.543 146.645 275.341 146.971 274.221C149.68 264.976 162.77 216.92 154.418 178.718C153.239 173.411 153.141 167.921 154.13 162.576C155.119 157.23 157.174 152.138 160.173 147.604C163.103 143.105 166.908 139.243 171.362 136.247C175.817 133.251 180.829 131.183 186.1 130.166L186.101 130.165C187.486 129.894 188.879 129.672 190.24 129.504C196.066 128.787 201.98 129.367 207.556 131.202C213.133 133.036 218.235 136.081 222.497 140.118C226.887 144.234 230.312 149.269 232.527 154.864C234.743 160.458 235.694 166.473 235.313 172.478L228.894 275.482C228.85 276.254 228.606 277.002 228.185 277.651C227.765 278.3 227.183 278.829 226.496 279.185C219.104 283.059 196.897 293.742 177.072 293.742Z" fill="#D9D9D9"/>
<path d="M152.706 276.828C154.112 276.129 155.347 275.129 156.325 273.9C157.303 272.672 158 271.243 158.366 269.716C158.733 268.189 158.76 266.6 158.445 265.061C158.131 263.522 157.483 262.071 156.547 260.81L164.58 182.27H147.22L140.836 258.96C138.822 260.673 137.505 263.065 137.136 265.683C136.767 268.301 137.372 270.964 138.835 273.166C140.298 275.369 142.518 276.958 145.074 277.633C147.631 278.308 150.346 278.022 152.706 276.828Z" fill="#A0616A"/>
<path d="M165.808 145.088C169.198 145.769 172.224 147.662 174.321 150.411C176.417 153.161 177.44 156.58 177.199 160.03L174.807 194.273C174.765 194.873 174.588 195.456 174.289 195.979C173.991 196.501 173.578 196.95 173.082 197.291C172.586 197.632 172.019 197.856 171.424 197.948C170.829 198.039 170.221 197.995 169.646 197.819L140.821 188.995C140.297 188.834 139.81 188.567 139.393 188.211C138.976 187.854 138.637 187.415 138.396 186.922C138.156 186.428 138.02 185.891 137.996 185.342C137.972 184.794 138.062 184.246 138.259 183.734L149.725 153.929C150.931 150.794 153.207 148.187 156.151 146.569C159.094 144.951 162.515 144.426 165.808 145.088Z" fill="#D9D9D9"/>
<path d="M219.865 78.8996C217.313 72.4877 212.64 67.1448 206.625 63.7627C200.609 60.3807 193.616 59.164 186.812 60.316L194.556 66.5738C184.934 66.8978 174.806 66.2089 167.937 72.9531C170.124 72.8924 172.99 77.5704 175.177 77.5097C171.088 77.5906 167.38 80.4636 165.574 84.1329C163.902 87.9027 163.51 92.1167 164.46 96.13C165.268 100.139 171.428 109.532 173.087 113.27C172.801 103.5 192.036 80.1957 201.428 82.6278C196.656 84.3984 192.516 87.5423 189.528 91.6631C195.918 88.4383 203.145 87.2559 210.229 88.276C211.846 88.6469 213.515 88.7403 215.164 88.5522C216.174 88.3524 217.117 87.8967 217.901 87.2288C218.685 86.5609 219.285 85.7031 219.644 84.7373C220.002 83.7715 220.107 82.73 219.948 81.7122C219.789 80.6944 219.372 79.7343 218.736 78.9237L219.865 78.8996Z" fill="#2F2E41"/>
<path d="M382 467H1C0.734784 467 0.480429 466.895 0.292892 466.707C0.105356 466.52 0 466.265 0 466C0 465.735 0.105356 465.48 0.292892 465.293C0.480429 465.105 0.734784 465 1 465H382C382.265 465 382.52 465.105 382.707 465.293C382.895 465.48 383 465.735 383 466C383 466.265 382.895 466.52 382.707 466.707C382.52 466.895 382.265 467 382 467Z" fill="#3F3D56"/>
<path d="M818.803 29H812.803V30H818.803V29Z" fill="#D9D9D9"/>
<path d="M800.682 30H788.561V29H800.682V30ZM776.44 30H764.319V29H776.44L776.44 30ZM752.197 30H740.076V29H752.197V30ZM727.955 30H715.834V29H727.955V30ZM703.712 30H691.591V29H703.712V30ZM679.47 30H667.349V29H679.47V30ZM655.227 30H643.106V29H655.227V30ZM630.985 30H618.864V29H630.985V30ZM606.743 30H594.621V29H606.743V30ZM582.5 30H570.379V29H582.5V30ZM558.258 30H546.137V29H558.258V30ZM534.015 30H521.894V29H534.015V30ZM509.773 30H497.652V29H509.773V30ZM485.53 30H473.409V29H485.53V30ZM461.288 30H449.167V29H461.288V30ZM437.046 30H424.924V29H437.046V30Z" fill="#D9D9D9"/>
<path d="M412.803 29H406.803V30H412.803V29Z" fill="#D9D9D9"/>
<path d="M621.803 122H615.803V123H621.803V122Z" fill="#D9D9D9"/>
<path d="M603.862 123H591.921V122H603.862V123ZM579.979 123H568.038V122H579.979V123ZM556.097 123H544.156V122H556.097V123ZM532.215 123H520.274V122H532.215V123ZM508.332 123H496.391V122H508.332V123ZM484.45 123H472.509V122H484.45V123ZM460.568 123H448.626V122H460.568L460.568 123ZM436.685 123H424.744V122H436.685V123Z" fill="#D9D9D9"/>
<path d="M412.803 122H406.803V123H412.803V122Z" fill="#D9D9D9"/>
<path d="M504.803 166H498.803V167H504.803V166Z" fill="#D9D9D9"/>
<path d="M486.517 167H474.232V166H486.517V167ZM461.946 167H449.66V166H461.946V167ZM437.375 167H425.089V166H437.375V167Z" fill="#D9D9D9"/>
<path d="M412.803 166H406.803V167H412.803V166Z" fill="#D9D9D9"/>
<path d="M818.973 40.01V211.27C818.963 219.886 815.536 228.147 809.443 234.24C803.35 240.333 795.09 243.76 786.473 243.77H438.473C433.911 243.773 429.4 242.813 425.235 240.952C421.069 239.09 417.344 236.371 414.303 232.97V231.44C417.231 234.962 420.893 237.801 425.034 239.758C429.175 241.715 433.693 242.743 438.273 242.77L498.463 182.58C499.252 181.791 500.189 181.164 501.221 180.737C502.252 180.31 503.357 180.09 504.473 180.09C505.589 180.09 506.695 180.31 507.726 180.737C508.757 181.164 509.694 181.791 510.483 182.58L542.473 214.56L617.463 139.58C618.252 138.791 619.189 138.164 620.221 137.737C621.252 137.31 622.357 137.09 623.473 137.09C624.589 137.09 625.695 137.31 626.726 137.737C627.757 138.164 628.694 138.791 629.483 139.58L673.473 183.56L816.983 40.06L817.973 40.03L818.433 40.02L818.973 40.01Z" fill="#C20014"/>
<path d="M786.803 244H438.803C430.187 243.99 421.926 240.563 415.833 234.47C409.74 228.377 406.313 220.117 406.303 211.5V32.5C406.313 23.8835 409.74 15.6226 415.833 9.5298C421.926 3.43698 430.187 0.00975325 438.803 0H786.803C795.42 0.00975061 803.68 3.43698 809.773 9.5298C815.866 15.6226 819.293 23.8835 819.303 32.5V211.5C819.293 220.117 815.866 228.377 809.773 234.47C803.68 240.563 795.42 243.99 786.803 244ZM438.803 1C430.452 1.00945 422.445 4.33122 416.54 10.2366C410.634 16.1419 407.313 24.1486 407.303 32.5V211.5C407.313 219.851 410.634 227.858 416.54 233.763C422.445 239.669 430.452 242.991 438.803 243H786.803C795.155 242.991 803.161 239.669 809.067 233.763C814.972 227.858 818.294 219.851 818.303 211.5V32.5C818.294 24.1486 814.972 16.1419 809.067 10.2366C803.161 4.33122 795.155 1.00945 786.803 1H438.803Z" fill="#3F3D56"/>
<path d="M439.157 243.853L438.45 243.146L498.793 182.803C500.388 181.211 502.55 180.317 504.803 180.317C507.057 180.317 509.218 181.211 510.813 182.803L542.803 214.793L617.793 139.803C619.388 138.211 621.55 137.317 623.803 137.317C626.057 137.317 628.218 138.211 629.813 139.803L673.803 183.793L818.45 39.1465L819.157 39.8535L673.803 185.207L629.106 140.51C628.41 139.814 627.583 139.261 626.673 138.884C625.763 138.507 624.788 138.313 623.803 138.313C622.818 138.313 621.843 138.507 620.933 138.884C620.023 139.261 619.196 139.814 618.5 140.51L542.803 216.207L510.106 183.51C508.699 182.106 506.792 181.317 504.803 181.317C502.815 181.317 500.908 182.106 499.5 183.51L439.157 243.853Z" fill="#3F3D56"/>
<path d="M504.803 173.5C508.669 173.5 511.803 170.366 511.803 166.5C511.803 162.634 508.669 159.5 504.803 159.5C500.937 159.5 497.803 162.634 497.803 166.5C497.803 170.366 500.937 173.5 504.803 173.5Z" fill="#3F3D56"/>
<path d="M621.803 129.5C625.669 129.5 628.803 126.366 628.803 122.5C628.803 118.634 625.669 115.5 621.803 115.5C617.937 115.5 614.803 118.634 614.803 122.5C614.803 126.366 617.937 129.5 621.803 129.5Z" fill="#3F3D56"/>
<path d="M818.803 36.5C822.669 36.5 825.803 33.366 825.803 29.5C825.803 25.634 822.669 22.5 818.803 22.5C814.937 22.5 811.803 25.634 811.803 29.5C811.803 33.366 814.937 36.5 818.803 36.5Z" fill="#3F3D56"/>
<path d="M171.469 292.11C185.988 292.11 197.758 275.359 197.758 254.694C197.758 234.03 185.988 217.278 171.469 217.278C156.949 217.278 145.179 234.03 145.179 254.694C145.179 275.359 156.949 292.11 171.469 292.11Z" fill="#3F3D56"/>
<path opacity="0.1" d="M171.469 292.11C185.988 292.11 197.758 275.359 197.758 254.694C197.758 234.03 185.988 217.278 171.469 217.278C156.949 217.278 145.179 234.03 145.179 254.694C145.179 275.359 156.949 292.11 171.469 292.11Z" fill="black"/>
<path d="M175.013 292.11C189.533 292.11 201.303 275.359 201.303 254.694C201.303 234.03 189.533 217.278 175.013 217.278C160.494 217.278 148.724 234.03 148.724 254.694C148.724 275.359 160.494 292.11 175.013 292.11Z" fill="#3F3D56"/>
<path opacity="0.1" d="M175.013 286.785C187.466 286.785 197.562 272.417 197.562 254.694C197.562 236.971 187.466 222.603 175.013 222.603C162.561 222.603 152.465 236.971 152.465 254.694C152.465 272.417 162.561 286.785 175.013 286.785Z" fill="black"/>
<path d="M174.818 270.152V266.385C173.015 266.369 171.26 265.796 169.795 264.744L170.583 262.245C171.948 263.268 173.604 263.83 175.311 263.849C175.812 263.889 176.317 263.823 176.792 263.657C177.268 263.491 177.703 263.227 178.071 262.883C178.438 262.539 178.73 262.123 178.928 261.66C179.125 261.196 179.224 260.697 179.218 260.194C179.218 258.142 177.937 256.874 175.508 255.755C172.159 254.264 170.09 252.548 170.09 249.303C170.039 247.869 170.515 246.465 171.429 245.359C172.342 244.252 173.63 243.519 175.048 243.298V239.531H177.083V243.149C178.601 243.17 180.082 243.622 181.352 244.454L180.531 246.916C179.313 246.082 177.87 245.64 176.394 245.648C175.949 245.601 175.498 245.65 175.073 245.791C174.648 245.932 174.258 246.161 173.929 246.465C173.6 246.768 173.339 247.139 173.164 247.551C172.989 247.963 172.904 248.408 172.914 248.855C172.914 250.795 174.129 251.764 176.985 253.107C180.367 254.674 182.074 256.613 182.074 259.933C182.119 261.437 181.619 262.908 180.666 264.073C179.713 265.238 178.37 266.019 176.886 266.273V270.152L174.818 270.152Z" fill="#C20014"/>
<path d="M189.087 233.259C189.636 233.323 190.18 233.43 190.713 233.579L228.359 201.294L226.159 189.449L243.601 183.792L249.535 204.383C250.014 206.046 249.941 207.82 249.326 209.439C248.712 211.057 247.588 212.432 246.126 213.358L198.448 243.528C198.482 245.66 197.866 247.751 196.682 249.524C195.499 251.297 193.803 252.667 191.822 253.453C189.84 254.239 187.666 254.402 185.589 253.923C183.513 253.443 181.631 252.342 180.195 250.767C178.759 249.191 177.836 247.216 177.55 245.104C177.264 242.991 177.628 240.842 178.593 238.941C179.558 237.041 181.08 235.479 182.954 234.464C184.828 233.449 186.968 233.029 189.087 233.259Z" fill="#A0616A"/>
<path d="M221.342 146.321C224.727 145.616 228.253 146.167 231.261 147.873C234.269 149.578 236.553 152.32 237.686 155.587L248.938 188.017C249.135 188.586 249.201 189.192 249.132 189.79C249.063 190.387 248.859 190.962 248.537 191.47C248.214 191.979 247.782 192.408 247.27 192.725C246.759 193.043 246.183 193.241 245.584 193.306L215.611 196.514C215.065 196.573 214.513 196.518 213.989 196.354C213.466 196.19 212.981 195.92 212.566 195.56C212.151 195.201 211.815 194.76 211.578 194.265C211.341 193.77 211.208 193.231 211.188 192.683L210.024 160.769C209.902 157.413 210.971 154.121 213.042 151.477C215.113 148.832 218.053 147.006 221.342 146.321Z" fill="#D9D9D9"/>
</g>
<defs>
<clipPath id="clip0_953_206">
<rect width="825.803" height="467" fill="white"/>
</clipPath>
</defs>
</svg>
