<svg width="32" height="31" viewBox="0 0 32 31" fill="none" xmlns="http://www.w3.org/2000/svg">
<path d="M1.83317 28.1816V9.17737C1.43434 9.08121 1.05685 8.79667 0.700712 8.32375C0.344573 7.8508 0.166504 7.31697 0.166504 6.72225V2.60691C0.166504 1.90039 0.421893 1.28929 0.932671 0.773623C1.44345 0.257956 2.057 0.00012207 2.77334 0.00012207H29.2263C29.9328 0.00012207 30.5439 0.257956 31.0596 0.773623C31.5753 1.28929 31.8331 1.90039 31.8331 2.60691V6.72225C31.8331 7.31697 31.655 7.8508 31.2989 8.32375C30.9427 8.79667 30.5653 9.08121 30.1664 9.17737V28.1816C30.1664 28.8881 29.9086 29.5067 29.3929 30.0373C28.8773 30.568 28.2661 30.8333 27.5596 30.8333H4.44C3.72367 30.8333 3.11012 30.568 2.59934 30.0373C2.08856 29.5067 1.83317 28.8881 1.83317 28.1816ZM29.2263 7.23508C29.3758 7.23508 29.4987 7.18701 29.5949 7.09087C29.691 6.99471 29.7391 6.87183 29.7391 6.72225V2.60691C29.7391 2.45733 29.691 2.33447 29.5949 2.23833C29.4987 2.14216 29.3758 2.09408 29.2263 2.09408H2.77334C2.62375 2.09408 2.50088 2.14216 2.40471 2.23833C2.30855 2.33447 2.26046 2.45733 2.26046 2.60691V6.72225C2.26046 6.87183 2.30855 6.99471 2.40471 7.09087C2.50088 7.18701 2.62375 7.23508 2.77334 7.23508H29.2263ZM11.3203 17.3525H20.6793V15.2586H11.3203V17.3525Z" fill="white"/>
</svg>
