<svg width="43" height="43" viewBox="0 0 43 43" fill="none" xmlns="http://www.w3.org/2000/svg">
<path d="M10.1201 4.15723C9.07031 4.39238 8.02051 5.03067 7.39063 5.81172C7.18066 6.07207 6.41641 7.49981 5.53457 9.25508L4.03125 12.2617V23.4148C4.03125 34.2572 4.03965 34.5932 4.19922 35.223C4.43438 36.1469 4.8207 36.8188 5.50098 37.499C6.18125 38.1793 6.85313 38.5656 7.77695 38.8008C8.40684 38.9688 8.75117 38.9688 21.5 38.9688C34.2488 38.9688 34.5932 38.9688 35.223 38.8008C36.1553 38.5656 36.8188 38.1877 37.499 37.499C38.1793 36.8188 38.5656 36.1385 38.8008 35.223C38.9604 34.5932 38.9688 34.2572 38.9688 23.4148V12.2617L37.4654 9.25508C36.4744 7.26465 35.8361 6.09727 35.5758 5.77813C35.1055 5.19864 34.1145 4.51836 33.3586 4.26641L32.7959 4.07325L21.71 4.05645C12.7152 4.04805 10.5316 4.06485 10.1201 4.15723ZM32.8043 6.94551C33.3838 7.25625 33.7281 7.73496 34.6016 9.49024L35.4414 11.1699H21.5H7.55859L8.39844 9.48184C9.34746 7.59219 9.675 7.15547 10.3553 6.89512C10.7836 6.72715 10.9936 6.72715 21.626 6.74395L32.46 6.76075L32.8043 6.94551ZM36.2812 24.0699C36.2812 31.0826 36.2561 34.3916 36.1889 34.6352C36.0629 35.1475 35.559 35.7605 35.0635 36.0209L34.6436 36.2393L21.668 36.2645C7.0043 36.2896 8.13809 36.34 7.39902 35.6178C6.66836 34.9039 6.71875 35.727 6.71875 24.0867V13.8574H21.5H36.2812V24.0699Z" fill="white"/>
<path d="M16.3936 29.2854C15.982 29.4869 15.7637 29.8564 15.7217 30.3939C15.6797 30.9818 15.9065 31.3598 16.4608 31.6369L16.8303 31.8301H21.4998H26.1693L26.5389 31.6369C27.0932 31.3598 27.3199 30.9818 27.2779 30.3939C27.2359 29.848 27.0092 29.4785 26.5893 29.277C26.3373 29.1594 25.7578 29.1426 21.483 29.1426C17.225 29.1426 16.6371 29.1594 16.3936 29.2854Z" fill="white"/>
</svg>
