<svg xmlns="http://www.w3.org/2000/svg" height="24" viewBox="0 -960 960 960" width="24"><path d="M480-181.156q-24.249 0-41.316-17.067-17.067-17.067-17.067-41.316 0-24.25 17.067-41.317 17.067-17.066 41.316-17.066 24.249 0 41.316 17.066 17.067 17.067 17.067 41.317 0 24.249-17.067 41.316-17.067 17.067-41.316 17.067Zm0-240.461q-24.249 0-41.316-17.067-17.067-17.067-17.067-41.316 0-24.249 17.067-41.316 17.067-17.067 41.316-17.067 24.249 0 41.316 17.067 17.067 17.067 17.067 41.316 0 24.249-17.067 41.316-17.067 17.067-41.316 17.067Zm0-240.461q-24.249 0-41.316-17.066-17.067-17.067-17.067-41.317 0-24.249 17.067-41.316 17.067-17.067 41.316-17.067 24.249 0 41.316 17.067 17.067 17.067 17.067 41.316 0 24.25-17.067 41.317-17.067 17.066-41.316 17.066Z"/></svg>