<svg xmlns="http://www.w3.org/2000/svg" height="48" viewBox="0 96 960 960" width="48"><path d="M778.424 695.23V377.423L560 225.307 342.269 377.423V516h-43.845V356.039L560 169.232l262.269 186.807V695.23h-43.845ZM560 225.307Zm21.923 204.923h36.154v-36.153h-36.154v36.153Zm-80 0h36.154v-36.153h-36.154v36.153Zm80 80h36.154v-36.153h-36.154v36.153Zm-80 0h36.154v-36.153h-36.154v36.153Zm54.692 452.614-314.231-91.308v53.693H63.848V581.385H340.23l248.769 92.693q23.038 7.961 39.019 27.134 15.981 19.173 15.981 59.019h126.077q36.231 0 57.923 26.163 21.691 26.163 21.691 72.451v14l-293.075 89.999Zm-448.922-81.461h89.846V625.231h-89.846v256.152Zm445.306 36.001L804.23 840.91q-3.577-19.372-11.827-28.103-8.25-8.731-22.327-8.731H568.923q-27.154 0-52.962-3.808-25.807-3.807-45.038-10l-83.5-25.5 17.346-43.307 73.485 25.207q23.976 7.87 46.707 10.717 22.731 2.846 72.346 2.846 0-16.27-5.322-28.064T574.436 715.4l-240.821-90.169h-91.231v199.845l310.615 92.308Zm-355.46-164.077Zm399.768 6.924Zm-399.768-6.924Zm44.845 0Z"/></svg>