<svg width="469" height="474" viewBox="0 0 469 474" fill="none" xmlns="http://www.w3.org/2000/svg">
<path d="M425.811 314.041V124.681L295.667 34.0454L165.935 124.681V207.25H139.811V111.94L295.667 0.634064L451.935 111.94V314.041H425.811ZM308.729 156.145H330.271V134.604H308.729V156.145ZM261.062 156.145H282.604V134.604H261.062V156.145ZM308.729 203.812H330.271V182.271H308.729V203.812ZM261.062 203.812H282.604V182.271H261.062V203.812ZM293.65 473.495L106.42 419.09V451.082H0.0427246V246.209H164.72L312.945 301.438C322.096 304.6 329.846 309.99 336.194 317.605C342.542 325.221 345.716 336.943 345.716 352.771H420.837C435.229 352.771 446.733 357.967 455.349 368.36C463.965 378.752 468.274 393.142 468.274 411.528V419.87L293.65 473.495ZM26.167 424.957H79.7003V272.333H26.167V424.957ZM291.495 446.408L441.187 400.842C439.766 393.147 437.417 387.566 434.14 384.097C430.863 380.629 426.429 378.895 420.837 378.895H300.983C290.197 378.895 279.678 378.139 269.427 376.626C259.176 375.114 250.231 373.128 242.592 370.668L192.839 355.474L203.175 329.67L246.96 344.69C256.483 347.816 265.76 349.944 274.789 351.075C283.818 352.206 298.187 352.771 317.895 352.771C317.895 346.308 316.838 340.734 314.724 336.049C312.61 331.365 309.125 328.035 304.268 326.059L160.779 272.333H106.42V391.408L291.495 446.408Z" fill="white"/>
</svg>
