<svg width="48" height="48" viewBox="0 0 48 48" fill="none" xmlns="http://www.w3.org/2000/svg">
<path d="M11.8846 43C11.0981 43 10.4207 42.7159 9.8524 42.1476C9.28413 41.5793 9 40.9019 9 40.1154V20.1078C9 19.3114 9.28413 18.6315 9.8524 18.0682C10.4207 17.5049 11.0981 17.2232 11.8846 17.2232H15.3654V12.6348C15.3654 10.2385 16.206 8.20029 17.8873 6.52029C19.5686 4.84026 21.6084 4.00024 24.0065 4.00024C26.4047 4.00024 28.4422 4.84026 30.1191 6.52029C31.796 8.20029 32.6345 10.2385 32.6345 12.6348V17.2232H36.1153C36.9018 17.2232 37.5792 17.5049 38.1475 18.0682C38.7158 18.6315 38.9999 19.3114 38.9999 20.1078V40.1154C38.9999 40.9019 38.7158 41.5793 38.1475 42.1476C37.5792 42.7159 36.9018 43 36.1153 43H11.8846ZM11.8846 40.7308H36.1153C36.2948 40.7308 36.4422 40.6731 36.5576 40.5577C36.673 40.4423 36.7307 40.2949 36.7307 40.1154V20.1078C36.7307 19.9283 36.673 19.7809 36.5576 19.6655C36.4422 19.5501 36.2948 19.4924 36.1153 19.4924H11.8846C11.7051 19.4924 11.5577 19.5501 11.4423 19.6655C11.3269 19.7809 11.2692 19.9283 11.2692 20.1078V40.1154C11.2692 40.2949 11.3269 40.4423 11.4423 40.5577C11.5577 40.6731 11.7051 40.7308 11.8846 40.7308ZM24.0083 33.5C24.9412 33.5 25.7378 33.1745 26.398 32.5235C27.0583 31.8725 27.3884 31.089 27.3884 30.1731C27.3884 29.2885 27.0555 28.4924 26.3896 27.7847C25.7237 27.077 24.9244 26.7232 23.9915 26.7232C23.0587 26.7232 22.2621 27.077 21.6019 27.7847C20.9416 28.4924 20.6115 29.2969 20.6115 30.1981C20.6115 31.0994 20.9444 31.8751 21.6103 32.525C22.2762 33.175 23.0755 33.5 24.0083 33.5ZM17.6346 17.2232H30.3653V12.6348C30.3653 10.8666 29.7471 9.36369 28.5108 8.12599C27.2745 6.88826 25.7732 6.26939 24.007 6.26939C22.2408 6.26939 20.7371 6.88826 19.4961 8.12599C18.2551 9.36369 17.6346 10.8666 17.6346 12.6348V17.2232Z" fill="white"/>
</svg>
