<svg width="32" height="32" viewBox="0 0 32 32" fill="none" xmlns="http://www.w3.org/2000/svg">
<path d="M5.79042 25.2436C7.37234 24.1809 8.98789 23.3583 10.6371 22.7757C12.2863 22.1931 14.0739 21.9018 15.9998 21.9018C17.9257 21.9018 19.7161 22.1931 21.371 22.7757C23.026 23.3583 24.6444 24.1809 26.2263 25.2436C27.3794 23.9281 28.2532 22.5007 28.8475 20.9616C29.4419 19.4224 29.7391 17.7685 29.7391 16C29.7391 12.1475 28.4124 8.89443 25.7589 6.24093C23.1054 3.58743 19.8524 2.26068 15.9998 2.26068C12.1472 2.26068 8.89421 3.58743 6.24071 6.24093C3.58721 8.89443 2.26046 12.1475 2.26046 16C2.26046 17.7685 2.5605 19.4224 3.16059 20.9616C3.76067 22.5007 4.63728 23.9281 5.79042 25.2436ZM15.9946 17.047C14.4881 17.047 13.2199 16.5303 12.19 15.497C11.1601 14.4636 10.6451 13.1937 10.6451 11.6871C10.6451 10.1806 11.1618 8.91243 12.1952 7.88251C13.2285 6.85259 14.4984 6.33764 16.005 6.33764C17.5115 6.33764 18.7797 6.85432 19.8096 7.88768C20.8395 8.92104 21.3545 10.191 21.3545 11.6975C21.3545 13.204 20.8378 14.4722 19.8044 15.5021C18.7711 16.532 17.5012 17.047 15.9946 17.047ZM15.9885 31.8333C13.7942 31.8333 11.7328 31.4198 9.80409 30.5929C7.87545 29.766 6.19764 28.6353 4.77067 27.2008C3.34367 25.7664 2.21956 24.0892 1.39834 22.1695C0.577115 20.2497 0.166504 18.1886 0.166504 15.9861C0.166504 13.7908 0.579976 11.7314 1.40692 9.80809C2.23384 7.88479 3.36453 6.21052 4.799 4.7853C6.23345 3.36011 7.91056 2.23405 9.83034 1.40714C11.7501 0.580191 13.8112 0.166718 16.0137 0.166718C18.209 0.166718 20.2684 0.580191 22.1917 1.40714C24.115 2.23405 25.7893 3.36011 27.2145 4.7853C28.6397 6.21052 29.7658 7.88627 30.5927 9.81255C31.4196 11.7388 31.8331 13.7988 31.8331 15.9926C31.8331 18.1935 31.4196 20.2532 30.5927 22.1716C29.7658 24.0899 28.6397 25.7664 27.2145 27.2008C25.7893 28.6353 24.1123 29.766 22.1837 30.5929C20.255 31.4198 18.19 31.8333 15.9885 31.8333Z" fill="white"/>
</svg>
