<svg width="725" height="589" viewBox="0 0 725 589" fill="none" xmlns="http://www.w3.org/2000/svg">
<g clip-path="url(#clip0_953_165)">
<path d="M692.771 359.271C691.976 360.799 691.146 362.302 690.29 363.796C657.458 420.995 581.082 456.518 452.277 437.717C379.142 426.534 347.996 467.553 317.837 509.568C317.321 510.293 316.806 511.018 316.282 511.743C284.699 555.802 253.43 599.983 175.246 585.297C92.3611 572.192 41.208 504.893 33.2925 433.043C33.1961 432.169 33.1091 431.287 33.0302 430.413C28.5833 383.829 42.3261 335.594 77.3863 299.18C98.5642 277.189 128.653 265.509 159.712 265.876C169.063 266.05 178.411 265.357 187.634 263.805C189.67 263.447 191.645 263.054 193.567 262.608C233.135 253.566 251.369 226.683 262.551 193.877C262.814 193.099 263.076 192.321 263.329 191.535C289.006 113.298 277.133 3.48709 416.727 19.6412C541.644 28.8496 633.318 98.114 678.286 178.028C678.732 178.832 679.177 179.636 679.614 180.44C691.973 202.613 700.793 226.581 705.754 251.478C706.034 252.875 706.287 254.273 706.523 255.671C712.883 292.784 708.716 328.858 692.771 359.271Z" fill="#F2F2F2"/>
<path d="M679.614 180.44C670.651 191.091 660.553 200.732 649.499 209.192C606.436 242.217 551.892 260.127 498.083 263.884C470.43 265.828 442.641 263.94 415.505 258.275C387.897 252.491 361.564 242.304 336.062 230.405C311.258 218.829 287.189 205.776 262.551 193.877C262.814 193.099 263.076 192.321 263.329 191.535C290.194 204.465 316.509 218.715 343.689 231.034C369.296 242.645 395.803 252.115 423.524 257.182C451.184 262.204 479.412 263.31 507.379 260.467C561.04 255.068 615.627 235.271 656.881 199.853C664.627 193.203 671.788 185.902 678.286 178.028C678.732 178.832 679.177 179.636 679.614 180.44Z" fill="white"/>
<path d="M493.172 0.821808C493.11 0.821808 493.047 0.823805 492.984 0.827805C426.768 4.97627 374.898 60.247 374.898 126.658C374.898 193.069 426.768 248.34 492.984 252.487C493.38 252.514 493.777 252.458 494.15 252.324C494.523 252.19 494.865 251.98 495.153 251.708C495.44 251.44 495.669 251.116 495.825 250.756C495.981 250.395 496.061 250.006 496.059 249.614V3.7016C496.058 2.93712 495.753 2.20454 495.211 1.66464C494.67 1.12474 493.937 0.821647 493.172 0.821808Z" fill="#D9D9D9"/>
<path d="M594.413 210.686C593.432 210.686 592.49 210.296 591.795 209.603L506.178 123.986C505.834 123.643 505.56 123.236 505.375 122.787C505.189 122.338 505.094 121.857 505.095 121.372V3.70166C505.093 3.19673 505.195 2.69686 505.396 2.23349C505.597 1.77011 505.891 1.35326 506.261 1.00915C506.631 0.660777 507.069 0.392169 507.548 0.219966C508.026 0.0477633 508.535 -0.0243622 509.043 0.00803686C575.691 4.18332 627.899 59.8146 627.899 126.658C627.901 157.02 617.015 186.377 597.219 209.399C596.886 209.785 596.478 210.098 596.018 210.319C595.559 210.54 595.06 210.664 594.55 210.684C594.505 210.686 594.459 210.686 594.413 210.686Z" fill="#D9D9D9"/>
<path d="M508.807 253.315C507.861 253.314 506.952 252.954 506.262 252.308C505.892 251.964 505.597 251.547 505.397 251.083C505.196 250.619 505.093 250.118 505.095 249.613V143.444C505.095 142.713 505.312 141.998 505.718 141.39C506.124 140.782 506.701 140.309 507.377 140.029C508.052 139.749 508.795 139.676 509.512 139.819C510.229 139.961 510.888 140.313 511.405 140.83L586.116 215.541C586.471 215.897 586.75 216.32 586.936 216.787C587.122 217.253 587.211 217.753 587.198 218.255C587.185 218.757 587.071 219.251 586.861 219.707C586.651 220.163 586.35 220.572 585.978 220.909C564.707 240.059 537.598 251.474 509.036 253.308C508.96 253.313 508.883 253.315 508.807 253.315Z" fill="#C20014"/>
<path d="M706.523 255.671C694.536 276.927 677.613 295.676 658.235 310.537C615.172 343.562 560.629 361.472 506.82 365.229C479.167 367.173 451.378 365.286 424.241 359.62C396.633 353.836 370.301 343.649 344.798 331.75C318.833 319.632 293.663 305.889 267.811 293.545C241.986 281.208 215.443 270.689 187.634 263.805C189.67 263.447 191.645 263.054 193.567 262.608C195.384 263.08 197.195 263.569 199.001 264.076C253.378 279.278 301.368 309.236 352.426 332.379C378.033 343.99 404.54 353.461 432.261 358.528C459.92 363.549 488.148 364.655 516.116 361.813C569.777 356.414 624.363 336.616 665.618 301.198C681.947 287.24 695.554 270.383 705.754 251.478C706.034 252.875 706.287 254.273 706.523 255.671Z" fill="white"/>
<path d="M166.675 442.304C220.248 457.279 267.619 486.581 317.837 509.568C317.321 510.293 316.806 511.018 316.282 511.743C315.006 511.158 313.74 510.572 312.473 509.978C286.508 497.86 261.337 484.118 235.485 471.773C209.109 459.174 181.99 448.472 153.535 441.596C114.202 432.122 73.5707 429.232 33.2925 433.043C33.1961 432.169 33.1091 431.287 33.0302 430.413C77.9308 426.175 123.228 430.205 166.675 442.304Z" fill="white"/>
<path d="M382 526.601H1C0.734784 526.601 0.480429 526.496 0.292892 526.308C0.105356 526.121 0 525.867 0 525.601C0 525.336 0.105356 525.082 0.292892 524.894C0.480429 524.707 0.734784 524.601 1 524.601H382C382.265 524.601 382.52 524.707 382.707 524.894C382.895 525.082 383 525.336 383 525.601C383 525.867 382.895 526.121 382.707 526.308C382.52 526.496 382.265 526.601 382 526.601Z" fill="#D9D9D9"/>
<path d="M155.119 391.697C168.684 391.697 179.68 380.7 179.68 367.135C179.68 353.571 168.684 342.574 155.119 342.574C141.555 342.574 130.558 353.571 130.558 367.135C130.558 380.7 141.555 391.697 155.119 391.697Z" fill="#A0616A"/>
<path d="M247.019 540.442L247.592 552.689L200.629 560.729L199.783 542.655L247.019 540.442Z" fill="#A0616A"/>
<path d="M258.744 536.763L260.047 564.603L259.548 564.627C255.69 564.881 251.846 563.951 248.531 561.962C245.533 560.051 243.806 557.405 243.67 554.511L242.874 537.506L258.744 536.763Z" fill="#2F2E41"/>
<path d="M245.705 560.594L257.965 560.593L263.797 513.305L245.703 513.306L245.705 560.594Z" fill="#A0616A"/>
<path d="M242.578 556.591L266.722 556.59C268.742 556.59 270.744 556.988 272.611 557.761C274.478 558.534 276.174 559.668 277.603 561.096C279.031 562.525 280.165 564.221 280.938 566.088C281.711 567.955 282.109 569.956 282.109 571.976V572.476L242.579 572.478L242.578 556.591Z" fill="#2F2E41"/>
<path d="M129.963 549.139C131.306 548.325 132.454 547.227 133.327 545.921C134.2 544.615 134.776 543.134 135.014 541.582C135.252 540.03 135.148 538.444 134.707 536.936C134.266 535.429 133.5 534.037 132.463 532.857L142.249 435.503L118.943 437.132L116.653 532.316C114.787 534.189 113.673 536.682 113.523 539.322C113.372 541.962 114.195 544.565 115.836 546.639C117.476 548.712 119.82 550.112 122.424 550.573C125.028 551.034 127.71 550.524 129.963 549.139Z" fill="#A0616A"/>
<path d="M142.135 452.378L117.986 449.435C117.298 449.351 116.637 449.121 116.048 448.758C115.458 448.396 114.953 447.911 114.567 447.336C114.182 446.761 113.925 446.11 113.814 445.427C113.703 444.743 113.74 444.044 113.924 443.377L120.354 419.991C120.803 416.478 122.626 413.286 125.424 411.115C128.222 408.944 131.767 407.971 135.281 408.41C138.796 408.848 141.993 410.663 144.171 413.455C146.35 416.247 147.332 419.79 146.903 423.305L147.533 447.473C147.55 448.165 147.419 448.852 147.147 449.489C146.875 450.125 146.469 450.696 145.957 451.161C145.445 451.627 144.838 451.977 144.178 452.187C143.519 452.397 142.822 452.462 142.135 452.378Z" fill="#C20014"/>
<path d="M138.757 562.929C135.83 562.729 133.008 561.76 130.577 560.119C128.145 558.479 126.189 556.226 124.907 553.588C123.625 550.95 123.062 548.02 123.276 545.094C123.489 542.169 124.471 539.351 126.122 536.927L141.896 520.551L199.396 469.051L230.136 443.542C231.93 442.054 234.072 441.045 236.362 440.611C238.652 440.177 241.015 440.331 243.229 441.06C245.443 441.788 247.436 443.067 249.021 444.777C250.605 446.486 251.73 448.57 252.289 450.832L268.349 515.801C268.619 516.882 268.477 518.024 267.951 519.006C267.426 519.989 266.554 520.74 265.505 521.116L247.996 527.418C247.41 527.629 246.786 527.716 246.165 527.674C245.543 527.631 244.937 527.46 244.385 527.171C243.833 526.882 243.347 526.482 242.958 525.995C242.569 525.508 242.285 524.946 242.124 524.344L235.464 499.368L198.406 534.795L209.968 539.051C211.029 539.446 211.902 540.225 212.416 541.233C212.931 542.241 213.048 543.405 212.745 544.495L209.008 557.733C208.751 558.656 208.204 559.472 207.448 560.062C206.692 560.651 205.767 560.983 204.809 561.008L138.757 562.929Z" fill="#2F2E41"/>
<path d="M137.186 526.003L135.665 470.449L126.071 446.083C124.112 441.112 123.263 435.773 123.584 430.439C123.905 425.106 125.387 419.907 127.928 415.206C130.468 410.506 134.005 406.417 138.292 403.227C142.578 400.037 147.509 397.822 152.741 396.738C153.531 396.574 154.319 396.414 155.104 396.258C160.123 395.262 165.294 395.327 170.287 396.45C175.279 397.573 179.98 399.728 184.089 402.777C188.198 405.826 191.623 409.702 194.144 414.154C196.665 418.607 198.226 423.538 198.727 428.63L203.236 470.452L203.217 470.532C196.028 502.51 175.225 520.109 137.747 525.916L137.186 526.003Z" fill="#C20014"/>
<path d="M159.877 487.414C160.423 487.33 160.976 487.289 161.53 487.291L189.289 446.195L184.032 435.354L199.355 425.282L210.527 443.569C211.429 445.046 211.828 446.776 211.664 448.5C211.499 450.223 210.78 451.846 209.614 453.126L171.622 494.839C172.219 496.886 172.178 499.066 171.506 501.088C170.834 503.111 169.561 504.882 167.859 506.164C166.156 507.446 164.103 508.179 161.973 508.266C159.843 508.353 157.737 507.79 155.935 506.651C154.133 505.511 152.721 503.851 151.886 501.89C151.051 499.928 150.833 497.759 151.261 495.671C151.689 493.583 152.742 491.674 154.281 490.199C155.82 488.724 157.772 487.753 159.877 487.414Z" fill="#A0616A"/>
<path d="M186.859 445.431C186.237 445.257 185.659 444.951 185.165 444.533C184.671 444.116 184.273 443.597 183.998 443.011L174.398 422.568C172.568 419.812 171.904 416.443 172.554 413.2C173.203 409.956 175.112 407.102 177.862 405.263C180.612 403.425 183.979 402.751 187.225 403.391C190.471 404.031 193.33 405.932 195.177 408.677L210.345 425.509C210.778 425.99 211.102 426.558 211.296 427.175C211.489 427.792 211.548 428.443 211.467 429.085C211.386 429.726 211.167 430.343 210.827 430.893C210.486 431.442 210.031 431.912 209.492 432.27L190.561 444.846C190.022 445.204 189.413 445.441 188.774 445.542C188.135 445.643 187.482 445.605 186.859 445.431Z" fill="#C20014"/>
<path d="M480.883 386.187H399.813C398.645 386.187 397.524 385.723 396.698 384.897C395.871 384.071 395.407 382.95 395.407 381.781C395.407 380.613 395.871 379.492 396.698 378.666C397.524 377.839 398.645 377.375 399.813 377.375H480.883C482.052 377.375 483.172 377.839 483.999 378.666C484.825 379.492 485.289 380.613 485.289 381.781C485.289 382.95 484.825 384.071 483.999 384.897C483.172 385.723 482.052 386.187 480.883 386.187Z" fill="#CCCCCC"/>
<path d="M375.58 390.593C373.75 390.593 371.961 390.051 370.44 389.034C368.918 388.017 367.732 386.572 367.032 384.881C366.332 383.191 366.149 381.33 366.506 379.536C366.863 377.741 367.744 376.092 369.038 374.798C370.332 373.504 371.98 372.623 373.775 372.266C375.57 371.909 377.43 372.092 379.121 372.792C380.812 373.493 382.257 374.679 383.274 376.2C384.29 377.722 384.833 379.511 384.833 381.341C384.83 383.794 383.854 386.146 382.12 387.88C380.385 389.615 378.033 390.59 375.58 390.593Z" fill="#3F3D56"/>
<path d="M480.883 412.623H399.813C398.645 412.623 397.524 412.159 396.698 411.333C395.871 410.506 395.407 409.386 395.407 408.217C395.407 407.048 395.871 405.928 396.698 405.102C397.524 404.275 398.645 403.811 399.813 403.811H480.883C482.052 403.811 483.172 404.275 483.999 405.102C484.825 405.928 485.289 407.048 485.289 408.217C485.289 409.386 484.825 410.506 483.999 411.333C483.172 412.159 482.052 412.623 480.883 412.623Z" fill="#CCCCCC"/>
<path d="M375.58 417.029C373.75 417.029 371.961 416.486 370.44 415.47C368.918 414.453 367.732 413.008 367.032 411.317C366.332 409.627 366.148 407.766 366.505 405.971C366.862 404.177 367.744 402.528 369.038 401.234C370.332 399.94 371.98 399.059 373.775 398.702C375.57 398.345 377.43 398.528 379.121 399.228C380.812 399.929 382.257 401.114 383.273 402.636C384.29 404.158 384.833 405.947 384.833 407.776C384.83 410.23 383.854 412.581 382.12 414.316C380.385 416.051 378.033 417.026 375.58 417.029Z" fill="#3F3D56"/>
<path d="M480.883 439.059H399.813C398.645 439.059 397.524 438.595 396.698 437.769C395.871 436.942 395.407 435.822 395.407 434.653C395.407 433.485 395.871 432.364 396.698 431.538C397.524 430.711 398.645 430.247 399.813 430.247H480.883C482.052 430.247 483.172 430.711 483.999 431.538C484.825 432.364 485.289 433.485 485.289 434.653C485.289 435.822 484.825 436.942 483.999 437.769C483.172 438.595 482.052 439.059 480.883 439.059Z" fill="#CCCCCC"/>
<path d="M375.58 443.465C373.75 443.465 371.961 442.922 370.44 441.906C368.918 440.889 367.732 439.444 367.032 437.753C366.332 436.063 366.149 434.202 366.506 432.407C366.863 430.613 367.744 428.964 369.038 427.67C370.332 426.376 371.98 425.495 373.775 425.138C375.57 424.781 377.43 424.964 379.121 425.664C380.812 426.365 382.257 427.55 383.274 429.072C384.29 430.594 384.833 432.383 384.833 434.213C384.83 436.666 383.854 439.017 382.12 440.752C380.385 442.487 378.033 443.462 375.58 443.465Z" fill="#3F3D56"/>
<path d="M504.175 408.098H537.661C537.895 408.098 538.119 408.006 538.284 407.84C538.449 407.675 538.542 407.451 538.542 407.217V200.206C538.542 199.972 538.449 199.748 538.284 199.583C538.119 199.418 537.895 199.325 537.661 199.325C537.427 199.325 537.203 199.418 537.038 199.583C536.873 199.748 536.78 199.972 536.78 200.206V406.336H504.175C504.06 406.336 503.945 406.358 503.837 406.402C503.73 406.446 503.633 406.511 503.55 406.593C503.468 406.675 503.403 406.772 503.359 406.879C503.314 406.986 503.291 407.101 503.291 407.217C503.291 407.333 503.314 407.448 503.359 407.555C503.403 407.662 503.468 407.76 503.55 407.841C503.633 407.923 503.73 407.988 503.837 408.032C503.945 408.076 504.06 408.099 504.175 408.098Z" fill="#3F3D56"/>
<path d="M647.661 64.906C645.422 65.0863 643.18 64.5987 641.218 63.5047C639.256 62.4107 637.663 60.7595 636.639 58.7599C635.616 56.7603 635.208 54.5021 635.468 52.2708C635.728 50.0396 636.644 47.9355 638.099 46.2247C639.555 44.5139 641.485 43.2732 643.646 42.6594C645.807 42.0457 648.101 42.0865 650.239 42.7767C652.377 43.4669 654.262 44.7755 655.656 46.5371C657.05 48.2986 657.89 50.4339 658.07 52.673C658.312 55.6755 657.351 58.6511 655.399 60.9452C653.447 63.2394 650.664 64.6641 647.661 64.906ZM647.521 63.1643C649.416 63.0116 651.222 62.3006 652.713 61.1211C654.203 59.9416 655.311 58.3467 655.895 56.5379C656.479 54.7291 656.513 52.7877 655.994 50.9593C655.475 49.1309 654.425 47.4975 652.977 46.2657C651.53 45.0339 649.749 44.2591 647.861 44.0392C645.973 43.8192 644.063 44.1641 642.371 45.0301C640.679 45.8962 639.281 47.2445 638.356 48.9046C637.43 50.5647 637.017 52.462 637.17 54.3566C637.271 55.6146 637.619 56.8403 638.195 57.9638C638.77 59.0872 639.56 60.0864 640.521 60.9042C641.483 61.7221 642.595 62.3426 643.796 62.7304C644.997 63.1182 646.263 63.2656 647.521 63.1643Z" fill="#CCCCCC"/>
<path d="M686.77 35.7631C690.63 35.7631 693.76 32.6339 693.76 28.7738C693.76 24.9137 690.63 21.7844 686.77 21.7844C682.91 21.7844 679.781 24.9137 679.781 28.7738C679.781 32.6339 682.91 35.7631 686.77 35.7631Z" fill="#CCCCCC"/>
<path d="M721.125 10.4867C723.153 10.4867 724.797 8.8429 724.797 6.81523C724.797 4.78755 723.153 3.1438 721.125 3.1438C719.098 3.1438 717.454 4.78755 717.454 6.81523C717.454 8.8429 719.098 10.4867 721.125 10.4867Z" fill="#CCCCCC"/>
<path d="M594.295 288.46C593.056 290.334 591.29 291.799 589.219 292.669C587.148 293.54 584.866 293.776 582.66 293.349C580.455 292.923 578.426 291.851 576.829 290.271C575.233 288.691 574.14 286.673 573.691 284.472C573.241 282.271 573.454 279.986 574.303 277.906C575.152 275.827 576.599 274.045 578.46 272.788C580.322 271.53 582.514 270.853 584.76 270.841C587.007 270.83 589.206 271.484 591.08 272.723C593.59 274.386 595.339 276.976 595.942 279.927C596.544 282.877 595.952 285.946 594.295 288.46ZM576.801 276.901C575.753 278.487 575.199 280.348 575.209 282.248C575.218 284.149 575.791 286.004 576.856 287.579C577.92 289.154 579.427 290.378 581.187 291.096C582.947 291.815 584.88 291.995 586.742 291.615C588.604 291.234 590.312 290.31 591.649 288.959C592.986 287.608 593.893 285.891 594.254 284.025C594.615 282.159 594.415 280.228 593.678 278.475C592.942 276.723 591.703 275.229 590.117 274.181C587.989 272.778 585.393 272.277 582.896 272.787C580.4 273.297 578.208 274.777 576.801 276.901Z" fill="#CCCCCC"/>
<path d="M607.901 330.23C611.761 330.23 614.89 327.101 614.89 323.241C614.89 319.381 611.761 316.252 607.901 316.252C604.041 316.252 600.912 319.381 600.912 323.241C600.912 327.101 604.041 330.23 607.901 330.23Z" fill="#CCCCCC"/>
<path d="M627.397 362.723C629.425 362.723 631.068 361.079 631.068 359.051C631.068 357.024 629.425 355.38 627.397 355.38C625.369 355.38 623.726 357.024 623.726 359.051C623.726 361.079 625.369 362.723 627.397 362.723Z" fill="#CCCCCC"/>
<path d="M312.278 97.7062C311.278 95.6946 310.897 93.4317 311.184 91.2037C311.47 88.9757 312.411 86.8827 313.887 85.1893C315.363 83.4959 317.308 82.2782 319.476 81.6902C321.644 81.1022 323.937 81.1703 326.067 81.8859C328.196 82.6015 330.065 83.9324 331.438 85.7103C332.811 87.4883 333.626 89.6334 333.78 91.8745C333.933 94.1156 333.419 96.3519 332.302 98.3007C331.185 100.249 329.515 101.823 327.503 102.823C324.805 104.16 321.687 104.372 318.832 103.413C315.978 102.454 313.621 100.401 312.278 97.7062ZM331.055 88.3751C330.209 86.6729 328.877 85.2598 327.228 84.3144C325.579 83.3691 323.687 82.9339 321.791 83.064C319.895 83.1941 318.08 83.8836 316.575 85.0453C315.071 86.207 313.944 87.7887 313.339 89.5904C312.733 91.3921 312.676 93.333 313.173 95.1674C313.671 97.0019 314.701 98.6476 316.134 99.8965C317.567 101.145 319.338 101.941 321.223 102.184C323.109 102.426 325.023 102.104 326.725 101.258C329.006 100.122 330.742 98.127 331.554 95.7118C332.366 93.2966 332.186 90.6581 331.055 88.3751Z" fill="#CCCCCC"/>
<path d="M275.365 99.0109C279.225 99.0109 282.354 95.8817 282.354 92.0216C282.354 88.1615 279.225 85.0322 275.365 85.0322C271.505 85.0322 268.376 88.1615 268.376 92.0216C268.376 95.8817 271.505 99.0109 275.365 99.0109Z" fill="#CCCCCC"/>
<path d="M234.607 94.5865C236.635 94.5865 238.278 92.9428 238.278 90.9151C238.278 88.8874 236.635 87.2437 234.607 87.2437C232.579 87.2437 230.935 88.8874 230.935 90.9151C230.935 92.9428 232.579 94.5865 234.607 94.5865Z" fill="#CCCCCC"/>
<path d="M181.075 369.285L180.051 366.675C177.227 359.477 170.473 353.943 163.245 352.906C159.639 352.434 155.973 352.996 152.673 354.526C149.374 356.056 146.577 358.491 144.607 361.548C142.935 364.448 141.615 367.537 140.675 370.75C140.353 371.707 140.028 372.399 139.404 372.609C138.702 372.861 138.003 372.429 136.845 371.711C136.587 371.551 136.288 371.468 135.984 371.471C135.681 371.474 135.384 371.564 135.129 371.729C134.874 371.895 134.672 372.129 134.545 372.405C134.419 372.681 134.374 372.988 134.415 373.289L135.629 381.959L134.613 381.054C128 375.169 126.642 364.093 131.419 357.066L120.547 359.3L121.037 358.365C125.552 349.65 133.334 343.078 142.681 340.085L132.268 337.792L133.321 337.144C142.646 331.399 154.948 331.561 164.66 337.546C169.538 340.671 173.578 344.941 176.429 349.984C179.28 355.028 180.854 360.691 181.016 366.482L181.075 369.285Z" fill="#2F2E41"/>
</g>
<defs>
<clipPath id="clip0_953_165">
<rect width="724.797" height="588.172" fill="white"/>
</clipPath>
</defs>
</svg>
