<svg width="26" height="25" viewBox="0 0 26 25" fill="none" xmlns="http://www.w3.org/2000/svg">
<path d="M13 11.47C11.3958 11.47 10.0564 10.9327 8.98171 9.858C7.90701 8.78334 7.36967 7.44392 7.36967 5.83975C7.36967 4.2285 7.90701 2.88731 8.98171 1.81617C10.0564 0.745059 11.3958 0.209503 13 0.209503C14.6041 0.209503 15.9435 0.745059 17.0182 1.81617C18.0929 2.88731 18.6303 4.2285 18.6303 5.83975C18.6303 7.44392 18.0929 8.78334 17.0182 9.858C15.9435 10.9327 14.6041 11.47 13 11.47ZM0.5 24.1794V20.8355C0.5 19.9665 0.732013 19.1946 1.19604 18.5198C1.66007 17.8449 2.26851 17.3262 3.02138 16.9637C4.74001 16.1745 6.42146 15.5809 8.06571 15.1827C9.70993 14.7846 11.3547 14.5855 13 14.5855C14.6452 14.5855 16.2871 14.7874 17.9257 15.1913C19.5642 15.5951 21.2428 16.1859 22.9615 16.9637C23.7257 17.3262 24.3398 17.8449 24.8039 18.5198C25.2679 19.1946 25.4999 19.9665 25.4999 20.8355V24.1794H0.5Z" fill="white"/>
</svg>
