<svg width="43" height="43" viewBox="0 0 43 43" fill="none" xmlns="http://www.w3.org/2000/svg">
<g clip-path="url(#clip0_830_149)">
<path d="M0 1.76357V2.77138H2.42715H4.8543L4.92988 3.08212C5.97129 7.10498 10.5316 24.0026 12.3793 30.671L13.1604 33.5097L12.774 33.7532C11.9426 34.2907 11.2287 35.2649 10.918 36.2727C10.8004 36.6423 10.75 37.0454 10.75 37.5997C10.75 39.229 11.4891 40.5811 12.8916 41.505C14.5713 42.6052 16.99 42.3784 18.4682 40.9843C19.4088 40.0772 19.9043 38.9686 19.9295 37.7089C19.9379 36.8438 19.8119 36.2559 19.434 35.5001L19.1568 34.9374H24.9938C28.2104 34.9374 30.8223 34.9626 30.8055 35.0046C30.7971 35.0382 30.6795 35.2733 30.5535 35.5253C29.6549 37.3393 30.0076 39.4474 31.4438 40.8583C32.3844 41.7905 33.3334 42.1852 34.6436 42.1852C36.4408 42.1936 37.9861 41.253 38.784 39.6657C39.6994 37.8181 39.3551 35.7604 37.8686 34.2739C37.2555 33.6524 36.2645 33.1401 35.4414 33.0142C35.0887 32.9554 31.4605 32.9218 25.0189 32.9218H15.134L14.9996 32.4011C14.9324 32.1071 14.7813 31.5528 14.6721 31.1581L14.4705 30.4442L24.725 30.4694C32.166 30.4862 35.1139 30.4694 35.4834 30.4022C36.55 30.1923 37.6922 29.3608 38.1961 28.4034C38.3809 28.0507 39.0611 25.6739 40.724 19.4591C41.9754 14.7979 43 10.9095 43 10.8087C43 10.5063 42.6809 10.078 42.3701 9.94365C42.1266 9.84286 39.733 9.82607 25.4557 9.82607H8.83516L8.65039 9.129C7.23105 3.86318 6.53398 1.37724 6.42481 1.20087C6.14766 0.780952 5.94609 0.755756 2.85547 0.755756H0V1.76357ZM40.6064 12.0684C40.5813 12.2028 39.649 15.705 38.5404 19.8622C36.3148 28.227 36.4324 27.8911 35.6094 28.3194L35.1727 28.5546H25.0777C15.4615 28.5546 14.9744 28.5462 14.6553 28.395C14.2857 28.227 13.9582 27.9415 13.7482 27.6224C13.6727 27.5132 12.8916 24.8089 12.0182 21.6259C10.54 16.2257 9.45664 12.3372 9.35586 11.9845C9.31387 11.8501 10.0949 11.8417 24.9854 11.8417H40.6652L40.6064 12.0684ZM16.4945 35.2229C17.0236 35.4833 17.4939 35.9704 17.7543 36.5247C18.023 37.121 18.0063 38.196 17.7039 38.7587C17.242 39.6321 16.4609 40.1444 15.4867 40.2116C14.6973 40.262 14.1598 40.0856 13.6055 39.5817C11.7158 37.8852 12.9588 34.8198 15.4699 34.9626C15.8563 34.9878 16.1754 35.0718 16.4945 35.2229ZM35.8445 35.2229C36.7768 35.6933 37.3059 36.5415 37.3143 37.5829C37.3143 38.1204 37.2807 38.28 37.0455 38.7503C36.55 39.7665 35.6682 40.2704 34.5176 40.2116C33.4594 40.1528 32.7203 39.6405 32.2584 38.6327C31.6957 37.4149 32.2332 35.878 33.451 35.2649C34.0053 34.9794 34.1816 34.9374 34.8199 34.971C35.2482 34.9962 35.5422 35.0718 35.8445 35.2229Z" fill="white"/>
</g>
<defs>
<clipPath id="clip0_830_149">
<rect width="43" height="43" fill="white"/>
</clipPath>
</defs>
</svg>
