<svg width="586" height="432" viewBox="0 0 586 432" fill="none" xmlns="http://www.w3.org/2000/svg">
<g clip-path="url(#clip0_953_104)">
<path d="M582.754 25.6134H3.24601C2.3854 25.6125 1.56031 25.2698 0.951773 24.6606C0.343231 24.0514 0.000940648 23.2255 0 22.3639V3.24949C0.000940648 2.38796 0.343231 1.56198 0.951773 0.952786C1.56031 0.343591 2.3854 0.000939723 3.24601 0H582.754C583.615 0.00094166 584.44 0.343602 585.048 0.952797C585.657 1.56199 585.999 2.38796 586 3.24949V22.364C585.999 23.2255 585.657 24.0514 585.048 24.6606C584.44 25.2698 583.615 25.6125 582.754 25.6134Z" fill="#E4E4E4"/>
<path d="M18.838 16.4877C21.3832 16.4877 23.4465 14.4222 23.4465 11.8742C23.4465 9.32627 21.3832 7.26074 18.838 7.26074C16.2928 7.26074 14.2295 9.32627 14.2295 11.8742C14.2295 14.4222 16.2928 16.4877 18.838 16.4877Z" fill="white"/>
<path d="M36.3304 16.4877C38.8757 16.4877 40.939 14.4222 40.939 11.8742C40.939 9.32627 38.8757 7.26074 36.3304 7.26074C33.7852 7.26074 31.7219 9.32627 31.7219 11.8742C31.7219 14.4222 33.7852 16.4877 36.3304 16.4877Z" fill="white"/>
<path d="M53.8236 16.4877C56.3688 16.4877 58.4321 14.4222 58.4321 11.8742C58.4321 9.32627 56.3688 7.26074 53.8236 7.26074C51.2784 7.26074 49.2151 9.32627 49.2151 11.8742C49.2151 14.4222 51.2784 16.4877 53.8236 16.4877Z" fill="white"/>
<path d="M565.615 8.6988H545.472C545.077 8.69793 544.698 8.54017 544.419 8.26014C544.14 7.98012 543.983 7.60069 543.983 7.20511C543.983 6.80953 544.14 6.43011 544.419 6.15009C544.698 5.87006 545.077 5.7123 545.472 5.71143H565.615C566.011 5.71114 566.39 5.868 566.67 6.14755C566.95 6.42709 567.108 6.80646 567.108 7.20231C567.109 7.59816 566.953 7.97812 566.674 8.25872C566.395 8.53931 566.016 8.6976 565.621 8.6988H565.615Z" fill="white"/>
<path d="M565.615 14.3004H545.472C545.077 14.2995 544.698 14.1417 544.419 13.8617C544.14 13.5817 543.983 13.2023 543.983 12.8067C543.983 12.4111 544.14 12.0317 544.419 11.7517C544.698 11.4716 545.077 11.3139 545.472 11.313H565.615C566.011 11.3127 566.39 11.4696 566.67 11.7491C566.95 12.0287 567.108 12.408 567.108 12.8039C567.109 13.1997 566.953 13.5797 566.674 13.8603C566.395 14.1409 566.016 14.2992 565.621 14.3004H565.615Z" fill="white"/>
<path d="M565.615 19.9014H545.472C545.076 19.9014 544.697 19.7441 544.417 19.464C544.137 19.1838 543.98 18.8039 543.98 18.4078C543.98 18.0116 544.137 17.6317 544.417 17.3516C544.697 17.0714 545.076 16.9141 545.472 16.9141H565.615C566.011 16.9133 566.391 17.07 566.671 17.3496C566.951 17.6292 567.109 18.0088 567.11 18.405C567.111 18.8011 566.954 19.1813 566.675 19.462C566.396 19.7426 566.016 19.9007 565.621 19.9014H565.615Z" fill="white"/>
<path d="M165.239 379.834C167.372 362.669 177.998 345.756 194.351 340.17C187.902 357.838 187.903 377.22 194.355 394.887C196.868 401.692 200.371 408.998 198.007 415.856C196.536 420.123 192.939 423.388 188.917 425.429C184.895 427.47 180.432 428.443 176.025 429.397L175.157 430.115C168.16 414.299 163.107 397 165.239 379.834Z" fill="#F0F0F0"/>
<path d="M194.513 340.494C184.99 351.176 179.071 364.59 177.597 378.832C177.226 381.892 177.338 384.992 177.931 388.017C178.603 390.945 180.046 393.64 182.111 395.82C183.995 397.893 186.162 399.794 187.51 402.288C188.181 403.576 188.572 404.99 188.659 406.44C188.746 407.889 188.525 409.34 188.012 410.698C186.822 414.116 184.476 416.901 182.088 419.545C179.436 422.481 176.635 425.488 175.508 429.38C175.371 429.852 174.648 429.612 174.784 429.141C176.746 422.37 183.312 418.523 186.443 412.425C187.904 409.579 188.518 406.275 187.148 403.271C185.95 400.644 183.717 398.681 181.792 396.6C179.747 394.502 178.246 391.934 177.42 389.122C176.676 386.137 176.444 383.046 176.736 379.983C177.281 373.077 178.908 366.3 181.557 359.9C184.54 352.579 188.751 345.822 194.01 339.923C194.335 339.557 194.837 340.132 194.513 340.494Z" fill="white"/>
<path d="M177.802 374.218C175.449 373.646 173.376 372.256 171.952 370.294C170.529 368.333 169.848 365.93 170.031 363.512C170.04 363.414 170.086 363.322 170.16 363.257C170.235 363.192 170.331 363.159 170.43 363.164C170.529 363.168 170.621 363.212 170.689 363.284C170.757 363.356 170.793 363.451 170.792 363.55C170.617 365.801 171.251 368.04 172.581 369.863C173.91 371.687 175.847 372.975 178.041 373.494C178.518 373.608 178.276 374.331 177.802 374.218Z" fill="white"/>
<path d="M181.017 394.896C185.267 392.355 188.405 388.304 189.804 383.551C189.943 383.08 190.666 383.319 190.527 383.79C189.062 388.734 185.788 392.943 181.36 395.577C180.937 395.827 180.597 395.145 181.017 394.896Z" fill="white"/>
<path d="M185.246 353.301C186.111 353.712 187.063 353.902 188.019 353.853C188.975 353.805 189.904 353.519 190.722 353.022C191.141 352.766 191.481 353.449 191.065 353.703C190.158 354.248 189.132 354.562 188.076 354.618C187.02 354.674 185.966 354.47 185.007 354.025C184.913 353.99 184.836 353.921 184.791 353.832C184.746 353.742 184.737 353.639 184.765 353.543C184.797 353.447 184.866 353.368 184.956 353.323C185.046 353.277 185.15 353.269 185.246 353.301Z" fill="white"/>
<path d="M244.198 370.829C243.941 370.997 243.684 371.164 243.426 371.338C239.982 373.605 236.728 376.148 233.695 378.943C233.458 379.155 233.22 379.374 232.988 379.593C225.754 386.404 219.846 394.5 215.564 403.47C213.863 407.041 212.437 410.737 211.296 414.524C209.721 419.755 208.429 425.553 205.312 429.831C204.992 430.281 204.644 430.711 204.271 431.118H176.1C176.036 431.086 175.971 431.06 175.907 431.028L174.782 431.08C174.827 430.88 174.879 430.674 174.924 430.475C174.95 430.359 174.982 430.243 175.007 430.127C175.026 430.05 175.046 429.973 175.059 429.902C175.065 429.876 175.072 429.851 175.078 429.831C175.091 429.761 175.11 429.696 175.123 429.632C175.406 428.48 175.697 427.328 175.997 426.177C175.997 426.17 175.997 426.17 176.003 426.164C178.205 417.366 181.441 408.86 185.644 400.826C185.773 400.588 185.901 400.343 186.043 400.105C187.989 396.548 190.223 393.157 192.721 389.965C194.095 388.221 195.556 386.548 197.098 384.952C201.092 380.837 205.707 377.376 210.775 374.696C220.879 369.356 232.577 367.31 243.375 370.572C243.651 370.656 243.921 370.739 244.198 370.829Z" fill="#F0F0F0"/>
<path d="M244.134 371.187C230.106 373.977 217.312 381.12 207.571 391.602C205.433 393.822 203.659 396.364 202.313 399.137C201.088 401.88 200.62 404.901 200.957 407.887C201.215 410.677 201.802 413.501 201.378 416.305C201.139 417.738 200.601 419.103 199.799 420.313C198.996 421.522 197.947 422.548 196.721 423.323C193.715 425.334 190.167 426.145 186.67 426.816C182.787 427.562 178.742 428.275 175.501 430.703C175.108 430.997 174.675 430.37 175.067 430.076C180.706 425.852 188.262 426.738 194.43 423.756C197.308 422.364 199.785 420.096 200.498 416.871C201.122 414.052 200.519 411.139 200.233 408.317C199.862 405.409 200.208 402.454 201.241 399.711C202.442 396.879 204.115 394.272 206.19 392.002C210.779 386.817 216.154 382.386 222.118 378.873C228.903 374.825 236.329 371.968 244.076 370.427C244.555 370.332 244.611 371.093 244.134 371.187Z" fill="white"/>
<path d="M210.509 388.042C208.974 386.167 208.155 383.807 208.198 381.383C208.241 378.959 209.143 376.629 210.743 374.81C211.068 374.443 211.653 374.931 211.327 375.299C209.834 376.99 208.994 379.16 208.959 381.418C208.923 383.675 209.695 385.87 211.135 387.608C211.447 387.986 210.82 388.417 210.509 388.042Z" fill="white"/>
<path d="M200.64 406.489C205.561 407.023 210.503 405.679 214.479 402.727C214.873 402.435 215.306 403.062 214.913 403.354C210.769 406.418 205.624 407.806 200.504 407.24C200.016 407.185 200.155 406.435 200.64 406.489Z" fill="white"/>
<path d="M229.033 375.827C229.475 376.676 230.122 377.402 230.915 377.94C231.707 378.477 232.62 378.809 233.573 378.905C234.061 378.954 233.922 379.703 233.436 379.656C232.385 379.544 231.377 379.176 230.5 378.584C229.623 377.993 228.904 377.195 228.407 376.261C228.352 376.177 228.332 376.075 228.35 375.977C228.368 375.878 228.422 375.79 228.503 375.731C228.586 375.674 228.688 375.652 228.787 375.67C228.887 375.688 228.975 375.744 229.033 375.827Z" fill="white"/>
<path d="M189.94 133.276H96.7366C93.8564 133.273 91.0951 132.126 89.0585 130.087C87.0219 128.048 85.8764 125.284 85.8732 122.4V71.5828C85.8764 68.6995 87.022 65.9353 89.0586 63.8966C91.0952 61.8579 93.8565 60.7111 96.7366 60.708H189.94C192.82 60.7112 195.581 61.8579 197.618 63.8966C199.655 65.9353 200.8 68.6995 200.803 71.5828V122.4C200.8 125.284 199.655 128.048 197.618 130.087C195.581 132.126 192.82 133.273 189.94 133.276Z" fill="#D9D9D9"/>
<path d="M332.235 133.276H239.031C236.151 133.273 233.39 132.126 231.353 130.087C229.316 128.048 228.171 125.284 228.168 122.4V71.5828C228.171 68.6995 229.317 65.9353 231.353 63.8966C233.39 61.8579 236.151 60.7111 239.031 60.708H332.235C335.115 60.7111 337.876 61.8579 339.913 63.8966C341.949 65.9353 343.095 68.6995 343.098 71.5828V122.4C343.095 125.284 341.949 128.048 339.913 130.087C337.876 132.126 335.115 133.273 332.235 133.276Z" fill="#C20014"/>
<path d="M474.529 133.276H381.326C378.446 133.273 375.684 132.126 373.648 130.087C371.611 128.048 370.466 125.284 370.462 122.4V71.5828C370.466 68.6995 371.611 65.9353 373.648 63.8966C375.684 61.8579 378.446 60.7111 381.326 60.708H474.529C477.409 60.7111 480.171 61.8579 482.207 63.8966C484.244 65.9353 485.389 68.6995 485.393 71.5828V122.4C485.389 125.284 484.244 128.048 482.207 130.087C480.171 132.126 477.409 133.273 474.529 133.276Z" fill="#D9D9D9"/>
<path d="M189.94 246.503H96.7366C93.8564 246.5 91.0951 245.353 89.0585 243.314C87.0219 241.276 85.8764 238.511 85.8732 235.628V184.81C85.8764 181.927 87.022 179.163 89.0586 177.124C91.0952 175.085 93.8565 173.939 96.7366 173.936H189.94C192.82 173.939 195.581 175.085 197.618 177.124C199.655 179.163 200.8 181.927 200.803 184.81V235.628C200.8 238.511 199.655 241.276 197.618 243.314C195.581 245.353 192.82 246.5 189.94 246.503Z" fill="#F2F2F2"/>
<path d="M332.235 246.503H239.031C236.151 246.5 233.39 245.353 231.353 243.314C229.316 241.276 228.171 238.511 228.168 235.628V184.81C228.171 181.927 229.317 179.163 231.353 177.124C233.39 175.085 236.151 173.939 239.031 173.936H332.235C335.115 173.939 337.876 175.085 339.913 177.124C341.949 179.163 343.095 181.927 343.098 184.81V235.628C343.095 238.511 341.949 241.276 339.913 243.314C337.876 245.353 335.115 246.5 332.235 246.503Z" fill="#D9D9D9"/>
<path d="M338.816 255.855C348.009 255.855 355.462 248.394 355.462 239.19C355.462 229.987 348.009 222.526 338.816 222.526C329.622 222.526 322.169 229.987 322.169 239.19C322.169 248.394 329.622 255.855 338.816 255.855Z" fill="#C20014"/>
<path d="M345.728 237.791H340.068V232.125C340.068 231.95 340.034 231.776 339.967 231.615C339.9 231.453 339.802 231.306 339.678 231.182C339.555 231.058 339.408 230.96 339.246 230.893C339.085 230.826 338.911 230.792 338.737 230.792C338.562 230.792 338.388 230.826 338.227 230.893C338.065 230.96 337.918 231.058 337.795 231.182C337.671 231.306 337.573 231.453 337.506 231.615C337.439 231.776 337.405 231.95 337.405 232.125V237.791H331.745C331.57 237.791 331.397 237.825 331.235 237.892C331.074 237.959 330.927 238.057 330.803 238.181C330.68 238.305 330.582 238.452 330.515 238.614C330.448 238.775 330.413 238.949 330.413 239.124C330.413 239.299 330.448 239.472 330.515 239.634C330.582 239.796 330.68 239.943 330.803 240.067C330.927 240.19 331.074 240.289 331.235 240.356C331.397 240.423 331.57 240.457 331.745 240.457H337.405V246.123C337.405 246.298 337.439 246.471 337.506 246.633C337.573 246.795 337.671 246.942 337.795 247.066C337.919 247.19 338.065 247.288 338.227 247.355C338.388 247.422 338.562 247.456 338.737 247.456C339.09 247.456 339.429 247.316 339.678 247.066C339.928 246.816 340.068 246.477 340.068 246.123V240.457H345.728C345.903 240.457 346.076 240.423 346.238 240.356C346.399 240.289 346.546 240.19 346.67 240.067C346.793 239.943 346.892 239.796 346.958 239.634C347.025 239.472 347.06 239.299 347.06 239.124C347.06 238.949 347.025 238.775 346.958 238.614C346.892 238.452 346.793 238.305 346.67 238.181C346.546 238.057 346.399 237.959 346.238 237.892C346.076 237.825 345.903 237.791 345.728 237.791Z" fill="white"/>
<path d="M483.299 145.549C492.493 145.549 499.946 138.088 499.946 128.885C499.946 119.681 492.493 112.22 483.299 112.22C474.106 112.22 466.653 119.681 466.653 128.885C466.653 138.088 474.106 145.549 483.299 145.549Z" fill="#C20014"/>
<path d="M490.212 127.485H484.552V121.819C484.552 121.644 484.518 121.471 484.451 121.309C484.384 121.147 484.286 121 484.162 120.876C484.038 120.753 483.892 120.654 483.73 120.587C483.568 120.52 483.395 120.486 483.22 120.486C483.045 120.486 482.872 120.52 482.711 120.587C482.549 120.654 482.402 120.753 482.279 120.876C482.155 121 482.057 121.147 481.99 121.309C481.923 121.471 481.889 121.644 481.889 121.819V127.485H476.229C476.054 127.485 475.881 127.519 475.719 127.586C475.557 127.653 475.411 127.752 475.287 127.875C475.163 127.999 475.065 128.146 474.998 128.308C474.931 128.47 474.897 128.643 474.897 128.818C474.897 128.993 474.931 129.167 474.998 129.328C475.065 129.49 475.163 129.637 475.287 129.761C475.411 129.885 475.557 129.983 475.719 130.05C475.881 130.117 476.054 130.151 476.229 130.151H481.889V135.817C481.889 135.992 481.923 136.166 481.99 136.328C482.057 136.489 482.155 136.636 482.279 136.76C482.402 136.884 482.549 136.982 482.711 137.049C482.872 137.116 483.045 137.151 483.22 137.151C483.574 137.151 483.912 137.01 484.162 136.76C484.412 136.51 484.552 136.171 484.552 135.817V130.151H490.212C490.387 130.151 490.56 130.117 490.721 130.05C490.883 129.983 491.03 129.885 491.154 129.761C491.277 129.637 491.375 129.49 491.442 129.328C491.509 129.167 491.544 128.993 491.544 128.818C491.544 128.643 491.509 128.47 491.442 128.308C491.375 128.146 491.277 127.999 491.154 127.875C491.03 127.752 490.883 127.653 490.721 127.586C490.56 127.519 490.387 127.485 490.212 127.485Z" fill="white"/>
<path d="M196.521 144.088C205.715 144.088 213.167 136.627 213.167 127.424C213.167 118.22 205.715 110.759 196.521 110.759C187.327 110.759 179.875 118.22 179.875 127.424C179.875 136.627 187.327 144.088 196.521 144.088Z" fill="#C20014"/>
<path d="M203.433 126.024H197.774V120.358C197.774 120.183 197.739 120.01 197.672 119.848C197.605 119.686 197.507 119.539 197.384 119.415C197.26 119.292 197.113 119.193 196.952 119.126C196.79 119.059 196.617 119.025 196.442 119.025C196.267 119.025 196.094 119.059 195.932 119.126C195.771 119.193 195.624 119.292 195.5 119.415C195.377 119.539 195.278 119.686 195.212 119.848C195.145 120.01 195.11 120.183 195.11 120.358V126.024H189.45C189.275 126.024 189.102 126.059 188.941 126.126C188.779 126.193 188.632 126.291 188.509 126.415C188.385 126.538 188.287 126.685 188.22 126.847C188.153 127.009 188.119 127.182 188.119 127.357C188.119 127.711 188.259 128.05 188.509 128.3C188.758 128.55 189.097 128.691 189.45 128.691H195.11V134.356C195.11 134.531 195.145 134.705 195.211 134.867C195.278 135.028 195.377 135.175 195.5 135.299C195.624 135.423 195.771 135.521 195.932 135.588C196.094 135.655 196.267 135.69 196.442 135.69C196.617 135.69 196.79 135.655 196.952 135.588C197.113 135.521 197.26 135.423 197.384 135.299C197.507 135.175 197.605 135.028 197.672 134.867C197.739 134.705 197.774 134.531 197.774 134.356V128.69H203.433C203.608 128.69 203.782 128.656 203.943 128.589C204.105 128.522 204.252 128.424 204.375 128.3C204.499 128.176 204.597 128.029 204.664 127.867C204.731 127.706 204.765 127.532 204.765 127.357C204.765 127.004 204.625 126.664 204.375 126.414C204.125 126.164 203.787 126.024 203.433 126.024Z" fill="white"/>
<path d="M321.149 104.403C321.453 105.323 321.552 106.298 321.438 107.26C321.325 108.222 321.002 109.147 320.493 109.971C319.983 110.794 319.3 111.496 318.49 112.026C317.681 112.557 316.765 112.903 315.807 113.041L308.11 165.638L295.484 159.464L308.183 106.963C308.059 105.337 308.534 103.722 309.52 102.423C310.505 101.125 311.932 100.233 313.531 99.9179C315.129 99.6024 316.787 99.8847 318.191 100.711C319.595 101.538 320.648 102.852 321.149 104.403Z" fill="#9E616A"/>
<path d="M229.215 272.856C229.777 272.068 230.16 271.166 230.336 270.213C230.512 269.261 230.477 268.281 230.234 267.344C229.991 266.406 229.546 265.534 228.93 264.787C228.313 264.04 227.541 263.438 226.667 263.023L231.86 207.076L220.983 212.657L217.587 266.569C216.987 268.085 216.964 269.769 217.521 271.301C218.079 272.833 219.178 274.108 220.611 274.883C222.045 275.658 223.712 275.88 225.298 275.506C226.883 275.133 228.277 274.19 229.215 272.856Z" fill="#9E616A"/>
<path d="M236.645 244.56L283.319 242.763L286.011 194.242H232.158L236.645 244.56Z" fill="#9E616A"/>
<path d="M227.983 415.914L235.959 415.913L239.752 385.118H227.981L227.983 415.914Z" fill="#9E616A"/>
<path d="M226.005 411.975L238.612 411.222V416.63L250.599 424.917C251.191 425.326 251.637 425.914 251.872 426.595C252.106 427.276 252.117 428.014 251.903 428.702C251.689 429.389 251.261 429.991 250.681 430.417C250.102 430.844 249.401 431.074 248.682 431.074H233.672L231.084 425.725L230.074 431.074H224.415L226.005 411.975Z" fill="#2F2E41"/>
<path d="M263.457 415.914L271.433 415.913L275.227 385.118H263.456L263.457 415.914Z" fill="#9E616A"/>
<path d="M235.998 233.17C235.998 233.17 222.033 244.456 229.603 284.764C228.45 284.901 229.756 287.176 229.756 287.176L230.848 320.019L231.692 323.783L228.886 329.857L230.043 336.457L226.476 396.352L239.653 398.057L252.262 335.86L254.664 328.867L257.072 322.738L255.773 316.201L256.839 306.056L264.108 271.848L265.888 331.177L263.404 336.842L264.786 343.059L261.708 346.36L260.491 401.871L274.541 402.529L286.166 346.57L285.265 339.429L286.811 334.149V321.816L289.46 315.995L295.235 284.257C295.235 284.257 296.978 259.45 284.266 230.259L235.998 233.17Z" fill="#2F2E41"/>
<path d="M241.689 153.917C241.689 153.917 224.051 157.409 221.012 172.468C217.972 187.527 216.017 221.603 216.017 221.603L216.683 226.349L233.745 230.31L244.635 182.562L241.689 153.917Z" fill="#3F3D56"/>
<path d="M281.943 159C281.943 159 283.731 156.492 293.743 156.105C294.155 156.089 293.645 155.271 293.645 155.271L298.46 131.71L314.507 140.604L311.798 165.304L285.429 195.328L281.943 159Z" fill="#3F3D56"/>
<path d="M271.94 229.238C264.386 229.239 253.014 228.404 235.896 225.86C234.793 225.694 233.772 225.179 232.983 224.39C232.193 223.602 231.676 222.581 231.507 221.478C230.948 220.887 230.584 220.138 230.465 219.333C230.346 218.528 230.478 217.706 230.842 216.978L230.858 216.947L230.47 216.489C229.87 215.784 229.518 214.901 229.467 213.976C229.416 213.051 229.669 212.135 230.188 211.367L224.886 173.4C224.348 169.629 225.172 165.791 227.209 162.574C229.246 159.357 232.363 156.974 235.998 155.852L237.955 155.242L245.357 145.551L245.503 145.552L269.263 145.869L276.973 155.671L289.437 158.613L289.47 158.803L292.364 175.542C293.869 184.248 290.417 187.673 286.011 195.329L287.304 216.83L287.891 217.897C288.217 218.488 288.326 219.174 288.199 219.837C288.073 220.5 287.719 221.097 287.199 221.526C287.592 222.651 287.619 223.872 287.276 225.013L286.971 226.021C286.972 226.05 286.89 226.46 286.232 226.96C285.046 227.863 281.639 229.238 271.94 229.238Z" fill="#3F3D56"/>
<path d="M261.479 411.975L274.087 411.222V416.63L286.073 424.917C286.666 425.326 287.111 425.914 287.346 426.595C287.581 427.276 287.592 428.014 287.378 428.702C287.164 429.389 286.735 429.991 286.156 430.417C285.576 430.844 284.876 431.074 284.156 431.074H269.146L266.559 425.725L265.549 431.074H259.889L261.479 411.975Z" fill="#2F2E41"/>
<path d="M274.721 124.432C276.369 114.266 269.473 104.688 259.318 103.038C249.163 101.389 239.595 108.292 237.948 118.458C236.3 128.623 243.196 138.202 253.351 139.851C263.505 141.501 273.073 134.597 274.721 124.432Z" fill="#9E616A"/>
<path d="M267.226 103.224C260.399 98.5237 254.387 97.8077 249.449 99.1409C248.808 98.1496 247.911 97.3515 246.852 96.8324C243 87.1167 231.278 81.2819 221.219 84.1183C211.094 86.973 204.109 98.1999 206.014 108.556C207.194 114.974 211.23 120.533 212.853 126.854C215.995 139.091 208.33 153.108 196.34 157.053C207.693 159.335 220.189 152.393 224.262 141.542C226.24 136.271 226.359 130.517 226.611 124.892C226.677 121.01 227.152 117.145 228.028 113.363C228.463 111.666 229.078 110.02 229.861 108.454C231.568 105.01 234.403 102.257 237.892 100.653C237.58 101.621 237.502 102.649 237.664 103.653C237.827 104.656 238.226 105.607 238.828 106.426C236.165 109.765 234.716 113.376 234.716 115.538C229.185 125.657 237.094 134.349 247.203 139.886C251.235 142.106 255.89 142.918 260.435 142.195L260.858 140.388L261.431 142.016L263.344 147.474C265.55 148.542 267.738 149.714 269.906 150.988C269.082 147.115 268.416 143.25 267.957 139.47C267.322 134.326 269.535 126.668 271.132 122.01C272.122 119.14 272.63 116.125 272.635 113.089V112.956L274.19 117.955L279.849 115.538C278.797 109.492 279.849 102.629 267.226 103.224Z" fill="#2F2E41"/>
<path d="M499.982 432H86.0183C85.7886 431.999 85.5688 431.907 85.4068 431.744C85.2448 431.581 85.1538 431.36 85.1538 431.13C85.1538 430.9 85.2448 430.68 85.4068 430.517C85.5688 430.354 85.7886 430.261 86.0183 430.26H499.982C500.211 430.261 500.431 430.354 500.593 430.517C500.755 430.68 500.846 430.9 500.846 431.13C500.846 431.36 500.755 431.581 500.593 431.744C500.431 431.907 500.211 431.999 499.982 432Z" fill="#D9D9D9"/>
<path d="M194.618 258.045C203.812 258.045 211.264 250.584 211.264 241.38C211.264 232.177 203.812 224.716 194.618 224.716C185.424 224.716 177.972 232.177 177.972 241.38C177.972 250.584 185.424 258.045 194.618 258.045Z" fill="#D9D9D9"/>
<path d="M445.082 231.803H386.695C384.891 231.801 383.161 231.082 381.885 229.805C380.61 228.528 379.892 226.796 379.89 224.99V193.156C379.892 191.35 380.61 189.618 381.886 188.341C383.161 187.064 384.891 186.345 386.695 186.343H445.082C446.886 186.345 448.616 187.064 449.892 188.341C451.168 189.618 451.885 191.349 451.887 193.156V224.99C451.885 226.796 451.168 228.528 449.892 229.805C448.616 231.082 446.886 231.801 445.082 231.803Z" fill="#F2F2F2"/>
<path d="M445.942 218.872C450.825 218.872 454.782 214.91 454.782 210.022C454.782 205.134 450.825 201.172 445.942 201.172C441.06 201.172 437.102 205.134 437.102 210.022C437.102 214.91 441.06 218.872 445.942 218.872Z" fill="#C20014"/>
<path d="M449.613 209.279H446.607V206.27C446.607 206.177 446.589 206.085 446.554 205.999C446.518 205.913 446.466 205.835 446.4 205.769C446.335 205.704 446.257 205.651 446.171 205.616C446.085 205.58 445.993 205.562 445.9 205.562C445.713 205.562 445.533 205.637 445.4 205.769C445.267 205.902 445.193 206.082 445.193 206.27V209.279H442.187C442 209.279 441.82 209.354 441.687 209.486C441.554 209.619 441.48 209.799 441.48 209.987C441.48 210.08 441.498 210.172 441.534 210.258C441.569 210.344 441.621 210.422 441.687 210.488C441.753 210.553 441.831 210.606 441.917 210.641C442.002 210.677 442.094 210.695 442.187 210.695H445.193V213.704C445.193 213.797 445.211 213.889 445.247 213.975C445.282 214.061 445.334 214.139 445.4 214.204C445.466 214.27 445.544 214.322 445.63 214.358C445.715 214.394 445.807 214.412 445.9 214.412C446.088 214.412 446.268 214.337 446.4 214.204C446.533 214.072 446.607 213.892 446.607 213.704V210.695H449.613C449.801 210.695 449.981 210.62 450.113 210.488C450.246 210.355 450.32 210.175 450.32 209.987C450.32 209.894 450.302 209.802 450.267 209.716C450.231 209.63 450.179 209.552 450.113 209.486C450.048 209.421 449.97 209.368 449.884 209.333C449.798 209.297 449.706 209.279 449.613 209.279Z" fill="white"/>
<path d="M468.869 222.768H420.753C418.711 222.766 416.753 221.953 415.309 220.507C413.865 219.062 413.053 217.102 413.05 215.058V186.305C413.051 185.929 413.201 185.568 413.467 185.303C413.733 185.037 414.094 184.888 414.469 184.888C414.845 184.888 415.206 185.037 415.472 185.303C415.738 185.568 415.888 185.929 415.889 186.305V194.005L471.778 199.091C472.894 199.111 473.958 199.569 474.741 200.366C475.524 201.163 475.963 202.235 475.965 203.353C475.965 203.441 475.957 203.528 475.94 203.615L473.124 218.652C473.085 219.756 472.62 220.802 471.826 221.57C471.033 222.337 469.973 222.767 468.869 222.768ZM415.889 196.858V215.058C415.89 216.349 416.403 217.586 417.315 218.499C418.227 219.412 419.464 219.926 420.753 219.927H468.869C469.245 219.927 469.606 219.777 469.872 219.511C470.138 219.244 470.288 218.883 470.288 218.506C470.288 218.419 470.296 218.331 470.313 218.245L473.122 203.243C473.094 202.887 472.933 202.554 472.671 202.311C472.409 202.068 472.065 201.933 471.707 201.932C471.665 201.932 471.622 201.93 471.579 201.926L415.889 196.858Z" fill="#C20014"/>
<path d="M407.968 236.028C409.274 236.028 410.333 234.968 410.333 233.66C410.333 232.353 409.274 231.292 407.968 231.292C406.661 231.292 405.603 232.353 405.603 233.66C405.603 234.968 406.661 236.028 407.968 236.028Z" fill="#C20014"/>
<path d="M466.977 236.028C468.283 236.028 469.342 234.968 469.342 233.66C469.342 232.353 468.283 231.292 466.977 231.292C465.671 231.292 464.612 232.353 464.612 233.66C464.612 234.968 465.671 236.028 466.977 236.028Z" fill="#C20014"/>
<path d="M469.342 231.292H406.075C405.699 231.292 405.338 231.143 405.072 230.876C404.806 230.61 404.656 230.249 404.656 229.872C404.656 229.495 404.806 229.134 405.072 228.867C405.338 228.601 405.699 228.451 406.075 228.451H469.342C469.719 228.451 470.08 228.601 470.346 228.867C470.612 229.134 470.761 229.495 470.761 229.872C470.761 230.249 470.612 230.61 470.346 230.876C470.08 231.143 469.719 231.292 469.342 231.292Z" fill="#C20014"/>
<path d="M418.254 187.252H405.955C405.579 187.252 405.219 187.102 404.953 186.835C404.688 186.569 404.539 186.208 404.539 185.832C404.539 185.456 404.688 185.095 404.953 184.828C405.219 184.562 405.579 184.412 405.955 184.411H418.254C418.63 184.412 418.99 184.562 419.255 184.828C419.521 185.095 419.67 185.456 419.67 185.832C419.67 186.208 419.521 186.569 419.255 186.835C418.99 187.102 418.63 187.252 418.254 187.252Z" fill="#C20014"/>
<path d="M428.121 230.569C427.781 230.57 427.453 230.448 427.196 230.226L417.869 222.202C417.727 222.08 417.61 221.932 417.526 221.765C417.441 221.599 417.391 221.417 417.376 221.231C417.362 221.045 417.384 220.858 417.443 220.68C417.501 220.502 417.593 220.338 417.715 220.196C417.836 220.055 417.985 219.938 418.151 219.854C418.318 219.77 418.499 219.72 418.686 219.706C418.872 219.692 419.059 219.715 419.236 219.773C419.413 219.832 419.577 219.925 419.718 220.047L429.046 228.071C429.266 228.26 429.423 228.512 429.495 228.793C429.568 229.074 429.553 229.371 429.452 229.643C429.351 229.915 429.169 230.149 428.931 230.315C428.693 230.481 428.41 230.569 428.121 230.569Z" fill="#C20014"/>
<path d="M430.086 221.896C429.9 221.896 429.715 221.859 429.543 221.788C429.371 221.717 429.214 221.612 429.083 221.48C428.951 221.348 428.846 221.192 428.775 221.019C428.704 220.847 428.667 220.662 428.667 220.476V197.671C428.667 197.294 428.816 196.933 429.083 196.666C429.349 196.4 429.71 196.25 430.086 196.25C430.462 196.25 430.823 196.4 431.089 196.666C431.356 196.933 431.505 197.294 431.505 197.671V220.476C431.505 220.662 431.468 220.847 431.397 221.019C431.326 221.191 431.221 221.348 431.09 221.48C430.958 221.612 430.801 221.717 430.629 221.788C430.457 221.859 430.272 221.896 430.086 221.896Z" fill="#C20014"/>
<path d="M460.064 221.896C459.877 221.896 459.693 221.859 459.521 221.788C459.348 221.717 459.192 221.612 459.06 221.48C458.928 221.348 458.824 221.192 458.753 221.019C458.681 220.847 458.645 220.662 458.645 220.476V199.565C458.645 199.189 458.795 198.828 459.061 198.562C459.327 198.297 459.688 198.147 460.064 198.147C460.439 198.147 460.8 198.297 461.066 198.562C461.332 198.828 461.482 199.189 461.483 199.565V220.476C461.483 220.662 461.446 220.847 461.375 221.019C461.303 221.192 461.199 221.348 461.067 221.48C460.935 221.612 460.779 221.717 460.607 221.788C460.435 221.859 460.25 221.896 460.064 221.896Z" fill="#C20014"/>
</g>
<defs>
<clipPath id="clip0_953_104">
<rect width="586" height="432" fill="white"/>
</clipPath>
</defs>
</svg>
