<svg width="43" height="43" viewBox="0 0 43 43" fill="none" xmlns="http://www.w3.org/2000/svg">
<g clip-path="url(#clip0_830_143)">
<path d="M20.45 0.0503883C20.3156 0.0671844 19.9041 0.125977 19.5346 0.176365C17.4686 0.453514 14.991 1.6209 13.3113 3.10742C11.1865 4.98027 9.6832 7.68457 9.22969 10.4561C9.06172 11.4639 9.08691 13.7314 9.27168 14.6553C9.86797 17.6871 11.5812 20.4922 13.8908 22.2391L14.4619 22.6758L14.2268 22.7598C13.2105 23.1461 12.7738 23.3393 11.9088 23.7676C8.17988 25.6404 5.14805 28.4707 2.98965 32.082C1.22598 35.0383 0.234961 38.3389 0.0333984 41.9922L-0.0253906 43H1.6627H3.35918V42.5885C3.35918 39.7414 4.54336 35.8109 6.13066 33.3922C8.57461 29.6549 11.85 27.0934 15.8393 25.7916C19.6354 24.5486 23.3643 24.5486 27.1603 25.7916C31.1496 27.0934 34.425 29.6549 36.8689 33.3922C38.4562 35.8109 39.6404 39.7414 39.6404 42.5885V43H41.3369H43.025L42.9662 41.9922C42.7646 38.3389 41.7736 35.0383 40.01 32.082C37.8516 28.4707 34.8197 25.6404 31.0908 23.7676C30.2258 23.3393 29.7891 23.1461 28.7729 22.7598L28.5377 22.6758L29.1088 22.2391C31.4184 20.4922 33.1316 17.6871 33.7279 14.6553C33.9127 13.7314 33.9379 11.4639 33.7699 10.4561C33.4088 8.24726 32.2918 5.9041 30.8137 4.22441C28.9744 2.15 26.3877 0.688671 23.6918 0.201561C23.0451 0.0839844 20.9035 -0.0167999 20.45 0.0503883ZM22.9191 3.48535C27.8574 4.2916 31.2336 8.94434 30.4441 13.849C29.6379 18.7873 24.9852 22.1635 20.0805 21.374C15.1422 20.5678 11.766 15.915 12.5555 11.0103C13.3617 6.07207 18.0145 2.6959 22.9191 3.48535Z" fill="white"/>
</g>
<defs>
<clipPath id="clip0_830_143">
<rect width="43" height="43" fill="white"/>
</clipPath>
</defs>
</svg>
